<?xml version="1.0" encoding="UTF-8"?>
<svg width="176px" height="152px" viewBox="0 0 176 152" version="1.1" xmlns="http://www.w3.org/2000/svg" xmlns:xlink="http://www.w3.org/1999/xlink">
    <!-- Generator: Sketch 49.1 (51147) - http://www.bohemiancoding.com/sketch -->
    <title>Group</title>
    <desc>Created with Sketch.</desc>
    <defs>
        <polygon id="path-1" points="0.000113580247 0.272981492 168.962089 0.272981492 168.962089 169.405424 0.000113580247 169.405424"></polygon>
        <polygon id="path-3" points="0 170.269505 183.375309 170.269505 183.375309 1.13694915 0 1.13694915"></polygon>
    </defs>
    <g id="Trabaja-con-Nosotros--III" stroke="none" stroke-width="1" fill="none" fill-rule="evenodd">
        <g id="opcion_B" transform="translate(-126.000000, -7.000000)">
            <g id="Group" transform="translate(118.000000, -3.000000)">
                <g id="Page-1">
                    <g id="Group-3" transform="translate(0.000000, 0.864081)">
                        <mask id="mask-2" fill="white">
                            <use xlink:href="#path-1"></use>
                        </mask>
                        <g id="Clip-2"></g>
                        <path d="M159.753127,84.8392595 C159.753127,43.2256365 126.052754,9.4912403 84.4811012,9.4912403 C45.9019109,9.4912403 14.1010485,38.5434834 9.72316756,75.9855127 C9.38313797,78.8898252 9.2090752,81.8437756 9.2090752,84.8392595 C9.2090752,126.452882 42.9094481,160.187279 84.4811012,160.187279 C126.052754,160.187279 159.753127,126.452882 159.753127,84.8392595 Z" id="Fill-1" fill="#FFFFFF" mask="url(#mask-2)"></path>
                    </g>
                    <polygon id="Fill-4" fill="#FF5700" points="39.1415704 62.8701047 38.1670519 62.9337738 37.2822617 63.1247813 36.3986074 63.4419901 35.5751506 63.9195087 34.7834963 64.4595596 34.112237 65.1258118 33.7760395 65.4759921 33.5034469 65.8887047 33.0150519 66.7471013 32.9241877 66.842605 32.7719901 67.0972816 35.9715457 69.0039454 36.2146074 68.5900959 36.5508049 68.3047216 36.8870025 68.0182104 37.2822617 67.8283399 37.6797926 67.6361955 38.1363852 67.5418287 38.5941136 67.446325 39.1415704 67.446325 39.6299654 67.446325 40.1172247 67.5418287 40.5442864 67.6361955 40.9702123 67.8283399 41.3370765 68.0182104 41.6721383 68.3047216 41.9765333 68.5900959 42.2820642 69.0039454 45.4827556 67.0972816 45.3600889 66.842605 45.2692247 66.7152667 44.7206321 65.8580071 44.140237 65.1258118 43.4394469 64.4595596 42.7079901 63.9195087 41.8550025 63.4419901 41.3972741 63.2509826 40.9702123 63.1247813 40.0558914 62.9337738"></polygon>
                    <polygon id="Fill-6" fill="#FF5700" points="129.364153 62.8701047 128.388499 62.9337738 127.503709 63.1247813 126.62119 63.4419901 125.797733 63.9195087 125.004943 64.4595596 124.333684 65.1258118 123.998622 65.4759921 123.723758 65.8887047 123.236499 66.7471013 123.145635 66.842605 122.994573 67.0972816 126.194128 69.0039454 126.43719 68.5900959 126.773388 68.3047216 127.108449 68.0182104 127.503709 67.8283399 127.900104 67.6361955 128.357832 67.5418287 128.81556 67.446325 129.364153 67.446325 129.852548 67.446325 130.338672 67.5418287 130.764598 67.6361955 131.191659 67.8283399 131.559659 68.0182104 131.894721 68.3047216 132.19798 68.5900959 132.503511 69.0039454 135.703067 67.0972816 135.581536 66.842605 135.490672 66.7152667 134.940943 65.8580071 134.361684 65.1258118 133.66203 64.4595596 132.930573 63.9195087 132.076449 63.4419901 131.618721 63.2509826 131.191659 63.1247813 130.278474 62.9337738"></polygon>
                    <polygon id="Fill-8" fill="#0098DD" points="25.5175062 76.5029209 20.7914321 86.8946361 16.1596296 76.5029209 8.44866667 76.5029209 18.4766667 96.7781351 23.0789383 96.7781351 33.1989383 76.5029209"></polygon>
                    <mask id="mask-4" fill="white">
                        <use xlink:href="#path-3"></use>
                    </mask>
                    <g id="Clip-11"></g>
                    <polygon id="Fill-10" fill="#0098DD" mask="url(#mask-4)" points="35.6062716 96.7771119 42.4642469 96.7771119 42.4642469 76.5018976 35.6062716 76.5018976"></polygon>
                    <polygon id="Fill-12" fill="#0098DD" mask="url(#mask-4)" points="55.5708395 82.477475 59.472321 82.477475 59.472321 76.5028072 55.5708395 76.5028072 55.5708395 70.4337726 48.7128642 70.4337726 48.7128642 76.5028072 46.4264938 76.5028072 46.4264938 82.477475 48.7128642 82.477475 48.7128642 96.7780214 55.5708395 96.7780214"></polygon>
                    <polygon id="Fill-13" fill="#0098DD" mask="url(#mask-4)" points="97.358716 82.1271809 97.7244444 81.9054759 98.1219753 81.746303 98.4877037 81.6507993 98.9136296 81.6189647 99.3100247 81.6507993 99.7370864 81.746303 100.132346 81.9054759 100.559407 82.1601525 100.894469 82.4136921 101.2 82.7627355 101.412395 83.1129159 101.627062 83.5256284 101.748593 84.0338447 101.779259 84.3533274 101.839457 84.764903 101.90079 85.6551342 101.90079 86.1633504 101.931457 86.7682074 101.931457 96.7779077 108.789432 96.7779077 108.789432 86.7682074 108.820099 85.5596304 108.972296 84.5431979 109.065432 84.0668162 109.216494 83.6859382 109.368691 83.3027864 109.582222 82.9855776 109.763951 82.6683687 110.008148 82.4136921 110.586272 82.0328142 110.892938 81.8736413 111.258667 81.8099721 111.624395 81.746303 112.051457 81.746303 112.44558 81.746303 112.843111 81.8418067 113.20884 81.969145 113.574568 82.1919871 113.849432 82.4136921 114.12316 82.7320379 114.368494 83.0810813 114.580889 83.5256284 114.703556 84.0338447 114.823951 84.764903 114.885284 85.6551342 114.885284 86.1633504 114.917086 86.7682074 114.917086 96.7779077 121.804593 96.7779077 121.804593 83.6211321 121.773926 82.7002033 121.683062 81.9054759 121.529728 81.1107484 121.377531 80.4115247 121.103802 79.7123009 120.828938 79.1085809 120.493877 78.5366955 120.128148 78.0603138 119.671556 77.5839321 119.152494 77.2019172 118.603901 76.8528738 118.023506 76.6311687 117.385185 76.4083267 116.713926 76.2491538 115.982469 76.1547871 115.221481 76.1547871 114.153827 76.1854847 113.20884 76.3753552 112.263852 76.6618664 111.440395 77.1064135 110.618074 77.6157667 109.917284 78.2820189 109.24716 79.0460487 108.667901 79.9669776 108.027309 79.0460487 107.692247 78.6321993 107.387852 78.2820189 106.656395 77.6157667 106.258864 77.3292555 105.894272 77.1064135 105.436543 76.8528738 105.008346 76.6618664 104.552889 76.5026935 104.09516 76.4083267 103.57837 76.2809884 103.089975 76.2173193 102.052988 76.1854847 101.109136 76.2173193 100.651407 76.2491538 100.256148 76.3435206 99.4326914 76.535665 98.7307654 76.8210393 97.968642 77.1712196 97.238321 77.6782989 96.5057284 78.2501843 95.7742716 79.0142142 95.7742716 76.5026935 88.9162963 76.5026935 88.9162963 96.7779077 95.7742716 96.7779077 95.7742716 86.7682074 95.8049383 85.591465 95.8969383 84.6375647 96.0491358 83.8439742 96.2615309 83.3027864 96.4148642 82.9548799 96.6885926 82.6365342 96.962321 82.350023"></polygon>
                    <polygon id="Fill-14" fill="#0098DD" mask="url(#mask-4)" points="126.010469 96.7771119 132.86958 96.7771119 132.86958 76.5018976 126.010469 76.5018976"></polygon>
                    <path d="M77.3944889,96.7781351 L84.2831309,96.7781351 L84.2831309,76.5029209 L77.3944889,76.5029209 L77.3944889,78.4732538 L77.0594272,78.1230734 L76.7538963,77.8376992 L76.0849086,77.2976483 L75.3829827,76.8201297 L74.6515259,76.4722233 L73.8587358,76.1857121 L73.0659457,75.9947046 L72.212958,75.8673663 L71.3599704,75.8366687 L70.2934519,75.8673663 L69.3177975,76.0265392 L68.3728099,76.2482443 L67.5198222,76.5984246 L66.6338963,77.0122741 L65.8433778,77.551188 L65.0801185,78.1867426 L64.3804642,78.9496355 L63.6774025,79.7125283 L63.099279,80.5709249 L62.6120198,81.4281846 L62.2462914,82.3820849 L61.9112296,83.3348483 L61.6976988,84.3842524 L61.5761679,85.4643541 L61.5443654,86.6399595 L61.5761679,87.7200612 L61.6976988,88.8001629 L61.9112296,89.8177324 L62.2462914,90.8034673 L62.3973531,91.2480144 L62.6120198,91.7255331 L62.8244148,92.1700802 L63.099279,92.6464619 L63.6774025,93.5048585 L64.3804642,94.3302836 L65.0801185,95.0306443 L65.8729086,95.6661988 L66.6656988,96.2062497 L67.5504889,96.6496599 L68.4330074,96.9680056 L69.3779951,97.2226822 L70.3536494,97.3818551 L71.390637,97.4443873 L72.3038222,97.3818551 L72.730884,97.318186 L73.1886123,97.2545168 L73.5850074,97.1271785 L74.0109333,96.9998402 L74.8037235,96.713329 L74.955921,96.5871277 L75.139921,96.4916239 L75.5045136,96.2687819 L76.1757728,95.7924002 L76.4801679,95.4751914 L76.6335012,95.3160185 L76.8163654,95.1886802 L77.0900938,94.8714714 L77.3944889,94.5531256 L77.3944889,96.7781351 Z M70.0185877,83.3678199 L70.3229827,83.0176395 L70.6887111,82.7322653 L71.4519704,82.3184158 L72.2742914,82.0637392 L72.7013531,82.001207 L73.1886123,82.001207 L73.6145383,82.001207 L74.0416,82.0637392 L74.4379951,82.1603799 L74.863921,82.3184158 L75.2307852,82.4775887 L75.6260444,82.7322653 L75.962242,83.0176395 L76.3279704,83.3678199 L76.6028346,83.6850287 L76.8754272,84.0659066 L77.0900938,84.4479216 L77.272958,84.8617711 L77.5160198,85.7190307 L77.5784889,86.1635778 L77.6080198,86.6717941 L77.5784889,87.1163412 L77.5160198,87.5620253 L77.3944889,87.9747378 L77.272958,88.4204219 L77.0900938,88.8001629 L76.8754272,89.1821778 L76.7243654,89.3402138 L76.6028346,89.5323582 L76.3279704,89.9132361 L75.962242,90.1997473 L75.778242,90.3270856 L75.6260444,90.4851216 L75.5045136,90.5169561 L75.2307852,90.7079636 L74.863921,90.9308056 L74.4379951,91.057007 L74.0416,91.1843453 L73.6145383,91.2480144 L73.1886123,91.279849 L72.730884,91.2480144 L72.3038222,91.1843453 L71.4803654,90.9308056 L70.7193778,90.4851216 L70.3536494,90.1997473 L70.0503901,89.9132361 L69.7130568,89.5323582 L69.4393284,89.1821778 L69.1962667,88.7694653 L69.0429333,88.3885873 L68.8907358,87.9429033 L68.7998716,87.5301907 L68.7374025,87.0856436 L68.7374025,86.6399595 L68.7374025,86.1317433 L68.7998716,85.6871961 L69.0429333,84.8287995 L69.4393284,84.0340721 L70.0185877,83.3678199 Z" id="Fill-15" fill="#0098DD" mask="url(#mask-4)"></path>
                    <polygon id="Fill-16" fill="#0098DD" mask="url(#mask-4)" points="147.835368 81.746303 148.29196 81.746303 148.749689 81.8418067 149.144948 81.9373104 149.511812 82.1271809 149.816207 82.3181884 150.121738 82.6035626 150.3648 82.8912108 150.578331 83.3027864 150.638528 83.4949308 150.730528 83.780305 150.791862 84.0975138 150.882726 84.5113633 150.913393 84.9240759 150.974726 85.4322921 150.974726 85.9405084 151.004257 86.5453654 151.004257 96.7779077 157.892899 96.7779077 157.892899 83.9076433 157.862232 83.3675925 157.862232 82.8912108 157.772504 82.0328142 157.649837 81.2380867 157.558973 80.8890433 157.49764 80.6025321 157.253442 79.9976752 156.946775 79.4269267 156.551516 78.8550413 156.093788 78.3138535 155.515664 77.7738026 154.936405 77.2974209 154.296948 76.8847084 153.626825 76.5981972 152.894232 76.3435206 152.162775 76.1854847 151.369985 76.0899809 150.547664 76.0581464 149.48001 76.0899809 148.993886 76.1218155 148.566825 76.2173193 148.10796 76.2798515 147.713837 76.4071898 147.316306 76.535665 146.981244 76.7255355 146.249788 77.1064135 145.578528 77.6157667 144.909541 78.2501843 144.238281 79.0460487 144.238281 76.5026935 137.350775 76.5026935 137.350775 96.7779077 144.238281 96.7779077 144.238281 85.9098108 144.267812 84.9559104 144.329146 84.5113633 144.451812 84.1293484 144.756207 83.3994271 144.937936 83.0810813 145.183269 82.8264047 145.395664 82.5410304 145.670528 82.3181884 146.309985 82.0009796 147.010775 81.8099721"></polygon>
                    <polygon id="Fill-17" fill="#FF5700" mask="url(#mask-4)" points="127.929975 112.787069 127.015654 114.121847 126.041136 115.394094 125.552741 116.028511 125.309679 116.346857 125.188148 116.504893 125.097284 116.6959 124.060296 117.90334 123.908099 118.030679 123.787704 118.189851 123.54237 118.508197 123.053975 119.142615 122.506519 119.715637 122.353185 119.842976 122.229383 120.002148 121.987457 120.319357 121.438864 120.891243 121.285531 121.017444 121.164 121.177754 120.919802 121.494963 120.617679 121.748502 120.464346 121.876978 120.339407 122.035014 119.793086 122.606899 119.487556 122.860439 119.336494 122.988914 119.213827 123.148087 118.665235 123.718835 118.056444 124.228188 117.749778 124.481728 117.59758 124.609066 117.476049 124.768239 116.318667 125.848341 116.134667 125.943845 115.982469 126.07232 115.678074 126.324723 115.069284 126.832939 113.850568 127.849371 112.568247 128.804409 111.290469 129.789007 109.64242 130.867971 107.996642 131.918512 106.352 132.872413 105.527407 133.31696 104.734617 133.793342 103.88163 134.17422 103.454568 134.365227 103.242173 134.459594 103.059309 134.588069 101.412395 135.350962 99.7677531 136.018351 98.1219753 136.652769 96.416 137.159848 94.7690864 137.637367 93.0608395 138.020519 91.4161975 138.368425 89.7090864 138.592404 88.8560988 138.686771 88.032642 138.815246 86.3255309 138.909613 85.4725432 138.941447 85.0454815 138.941447 84.8330864 138.941447 84.6502222 138.973282 82.9419753 138.909613 81.236 138.815246 79.5288889 138.592404 77.8513086 138.368425 76.1453333 138.020519 74.4688889 137.637367 72.7924444 137.159848 71.1466667 136.652769 69.4690864 136.018351 67.8244444 135.350962 66.1786667 134.588069 64.5317531 133.793342 62.8859753 132.872413 61.2401975 131.918512 59.593284 130.867971 58.0088395 129.789007 56.6674568 128.804409 55.3885432 127.849371 54.1380247 126.832939 52.9499753 125.848341 51.7301235 124.768239 50.5716049 123.718835 48.3477037 121.494963 46.1828642 119.142615 45.1470123 117.90334 44.171358 116.6959 42.250716 114.121847 41.3363951 112.787069 40.4834074 111.484125 37.282716 113.391926 38.1061728 115.171251 39.0204938 116.918742 39.9654815 118.603701 40.9706667 120.255688 41.9758519 121.845143 43.0741728 123.401626 44.2020247 124.894441 45.4207407 126.356557 46.6099259 127.756142 47.9195062 129.121618 49.2302222 130.424561 50.6329383 131.696807 52.0345185 132.90311 53.5292346 134.078716 55.0228148 135.222487 56.6379259 136.33556 58.2223704 137.319021 59.8386173 138.304756 61.4537284 139.163152 63.1301728 140.021549 64.8066173 140.752607 66.5137284 141.450694 68.2208395 142.055551 69.9881481 142.659271 71.7259259 143.135653 73.5239012 143.549502 75.3218765 143.897409 77.1505185 144.247589 78.9802963 144.470431 80.8384691 144.628467 82.7295802 144.725108 84.6502222 144.78764 85.5634074 144.755805 85.7769383 144.725108 86.02 144.725108 86.5095309 144.725108 88.3972346 144.628467 89.3126914 144.532963 90.257679 144.470431 91.172 144.34423 91.6297284 144.278287 92.1169877 144.247589 93.000642 144.056582 93.914963 143.897409 94.7986173 143.707538 95.7140741 143.549502 97.4802469 143.135653 98.3661728 142.882113 99.279358 142.659271 100.986469 142.055551 101.839457 141.738342 102.265383 141.578032 102.724247 141.450694 103.119506 141.260824 103.546568 141.100514 104.400691 140.752607 106.107802 140.021549 107.752444 139.163152 109.399358 138.304756 110.192148 137.79654 110.587407 137.541863 111.013333 137.319021 112.661383 136.33556 113.42237 135.762538 114.214025 135.222487 115.739407 134.078716 117.202321 132.90311 118.633432 131.696807 120.005481 130.424561 121.346864 129.121618 122.628049 127.756142 123.877432 126.356557 125.035951 124.894441 125.584543 124.131548 125.858272 123.751807 126.162667 123.401626 127.259852 121.845143 128.327506 120.255688 129.302025 118.603701 129.515556 118.158017 129.758617 117.745304 130.247012 116.918742 131.162469 115.171251 132.046123 113.391926 128.846568 111.484125"></polygon>
                    <path d="M171.852479,91.2477871 L171.426553,91.1841179 L170.603096,90.9305782 L169.840973,90.4860311 L169.47638,90.1995199 L169.171985,89.9141457 L168.836923,89.5321308 L168.562059,89.1830874 L168.317862,88.7692379 L168.165664,88.3883599 L167.9828,87.9426759 L167.8908,87.5299633 L167.829467,87.0842793 L167.829467,86.6408691 L167.829467,86.1315159 L167.8908,85.6869687 L168.134998,84.8285721 L168.530257,84.0338447 L169.140183,83.3675925 L169.444578,83.0174121 L169.811442,82.7309009 L170.57243,82.3181884 L171.395886,82.0635118 L171.824084,82.0009796 L172.311343,82.0009796 L172.737269,82.0009796 L173.163195,82.0635118 L173.560726,82.1601525 L173.986652,82.3181884 L174.353516,82.4773613 L174.749911,82.7309009 L175.083837,83.0174121 L175.450701,83.3675925 L175.723294,83.6859382 L175.998158,84.0656793 L176.212825,84.4476942 L176.394553,84.8615437 L176.637615,85.7188033 L176.70122,86.1633504 L176.729615,86.6727037 L176.70122,87.1172508 L176.637615,87.5617979 L176.516084,87.9745104 L176.394553,88.4201945 L176.212825,88.8010725 L175.998158,89.1830874 L175.847096,89.3411233 L175.723294,89.5321308 L175.450701,89.9141457 L175.083837,90.1995199 L174.900973,90.3268582 L174.749911,90.4860311 L174.626109,90.5167287 L174.353516,90.7088732 L173.986652,90.9305782 L173.560726,91.0579165 L173.163195,91.1841179 L172.737269,91.2477871 L172.311343,91.2796216 L171.852479,91.2477871 Z M169.415047,75.8671389 L168.440528,76.0263118 L167.493269,76.2491538 L166.640281,76.5981972 L165.757763,77.0120467 L164.964973,77.5520976 L164.202849,78.1876521 L163.500923,78.950545 L162.800133,79.7123009 L162.220874,80.5706976 L161.734751,81.4290942 L161.367886,82.3818576 L161.032825,83.3357579 L160.819294,84.384025 L160.697763,85.4652637 L160.667096,86.6408691 L160.697763,87.7198338 L160.819294,88.8010725 L161.032825,89.818642 L161.367886,90.8032399 L161.520084,91.2477871 L161.734751,91.7253057 L161.947146,92.1698528 L162.220874,92.6462345 L162.800133,93.5046311 L163.500923,94.3300562 L164.202849,95.0304169 L164.99564,95.6659715 L165.787294,96.2060223 L166.670948,96.6494325 L167.555738,96.9689152 L168.500726,97.2224548 L169.47638,97.3827647 L170.512232,97.4452969 L171.426553,97.3827647 L171.852479,97.3179586 L172.311343,97.2554264 L172.706602,97.1269511 L173.133664,96.9996128 L173.926454,96.7142386 L174.078652,96.5869003 L174.26038,96.4913965 L174.626109,96.2696915 L175.297368,95.7921728 L175.602899,95.474964 L175.755096,95.3157911 L175.93796,95.1884528 L176.212825,94.871244 L176.516084,94.5528982 L176.516084,96.7779077 L183.375195,96.7779077 L183.375195,76.5026935 L176.516084,76.5026935 L176.516084,78.4730264 L176.182158,78.123983 L175.876627,77.8386087 L175.206504,77.2974209 L174.505714,76.8210393 L173.773121,76.4708589 L172.980331,76.1854847 L172.554405,76.0581464 L172.159146,75.9944772 L171.305022,75.8671389 L170.450899,75.8353043 L169.415047,75.8671389 Z" id="Fill-18" fill="#0098DD" mask="url(#mask-4)"></path>
                </g>
            </g>
        </g>
    </g>
</svg>