<?xml version="1.0" encoding="utf-8"?>
<!-- Generator: Adobe Illustrator 21.0.0, SVG Export Plug-In . SVG Version: 6.00 Build 0)  -->
<svg version="1.1" id="Layer_1" xmlns="http://www.w3.org/2000/svg" xmlns:xlink="http://www.w3.org/1999/xlink" x="0px" y="0px"
	 viewBox="0 0 162 95" style="enable-background:new 0 0 162 95;" xml:space="preserve">
<style type="text/css">
	.st0{fill:#FFFFFF;}
</style>
<title>Group</title>
<desc>Created with Sketch.</desc>
<g id="_Bupa-Sales-II">
	<g id="login-copy" transform="translate(-45.000000, -152.000000)">
		<g id="Group" transform="translate(34.000000, 152.000000)">
			<g id="Page-1" transform="translate(18.595041, 0.000000)">
				<polygon id="Fill-1" class="st0" points="21.8,9.3 21,9.3 20.2,9.5 19.4,9.8 18.7,10.2 18,10.7 17.4,11.3 17.1,11.6 16.8,11.9 
					16.4,12.7 16.3,12.8 16.2,13 19,14.7 19.2,14.3 19.5,14.1 19.8,13.8 20.2,13.6 20.5,13.5 20.9,13.4 21.3,13.3 21.8,13.3 
					22.2,13.3 22.7,13.4 23,13.5 23.4,13.6 23.7,13.8 24,14.1 24.3,14.3 24.6,14.7 27.4,13 27.3,12.8 27.2,12.7 26.7,11.9 
					26.2,11.3 25.6,10.7 25,10.2 24.2,9.8 23.8,9.6 23.4,9.5 22.6,9.3 				"/>
				<polygon id="Fill-2" class="st0" points="101.2,9.3 100.4,9.3 99.6,9.5 98.8,9.8 98.1,10.2 97.4,10.7 96.8,11.3 96.5,11.6 
					96.3,11.9 95.9,12.7 95.8,12.8 95.6,13 98.5,14.7 98.7,14.3 99,14.1 99.3,13.8 99.6,13.6 100,13.5 100.4,13.4 100.8,13.3 
					101.2,13.3 101.7,13.3 102.1,13.4 102.5,13.5 102.9,13.6 103.2,13.8 103.5,14.1 103.7,14.3 104,14.7 106.8,13 106.7,12.8 
					106.6,12.7 106.2,11.9 105.6,11.3 105,10.7 104.4,10.2 103.6,9.8 103.2,9.6 102.9,9.5 102.1,9.3 				"/>
				<polygon id="Fill-3" class="st0" points="9.8,21.3 5.7,30.4 1.6,21.3 -5.2,21.3 3.6,39.1 7.7,39.1 16.6,21.3 				"/>
				<polygon id="Fill-4" class="st0" points="18.7,39.1 24.7,39.1 24.7,21.3 18.7,21.3 				"/>
				<polygon id="Fill-5" class="st0" points="36.3,26.5 39.7,26.5 39.7,21.3 36.3,21.3 36.3,15.9 30.2,15.9 30.2,21.3 28.2,21.3 
					28.2,26.5 30.2,26.5 30.2,39.1 36.3,39.1 				"/>
				<polygon id="Fill-6" class="st0" points="73.1,26.2 73.4,26 73.7,25.9 74.1,25.8 74.4,25.8 74.8,25.8 75.2,25.9 75.5,26 
					75.9,26.2 76.2,26.5 76.4,26.8 76.6,27.1 76.8,27.4 76.9,27.9 77,28.2 77,28.5 77.1,29.3 77.1,29.8 77.1,30.3 77.1,39.1 
					83.1,39.1 83.1,30.3 83.2,29.2 83.3,28.3 83.4,27.9 83.5,27.6 83.6,27.2 83.8,27 84,26.7 84.2,26.5 84.7,26.1 85,26 85.3,25.9 
					85.6,25.9 86,25.9 86.4,25.9 86.7,26 87,26.1 87.3,26.3 87.6,26.5 87.8,26.7 88,27 88.2,27.4 88.3,27.9 88.4,28.5 88.5,29.3 
					88.5,29.8 88.5,30.3 88.5,39.1 94.6,39.1 94.6,27.5 94.6,26.7 94.5,26 94.3,25.3 94.2,24.7 94,24.1 93.7,23.6 93.4,23.1 
					93.1,22.6 92.7,22.2 92.3,21.9 91.8,21.6 91.3,21.4 90.7,21.2 90.1,21 89.5,21 88.8,21 87.9,21 87,21.2 86.2,21.4 85.5,21.8 
					84.7,22.2 84.1,22.8 83.5,23.5 83,24.3 82.5,23.5 82.2,23.1 81.9,22.8 81.3,22.2 80.9,22 80.6,21.8 80.2,21.6 79.8,21.4 
					79.4,21.3 79,21.2 78.5,21.1 78.1,21 77.2,21 76.4,21 76,21 75.6,21.1 74.9,21.3 74.3,21.5 73.6,21.9 73,22.3 72.3,22.8 
					71.7,23.5 71.7,21.3 65.6,21.3 65.6,39.1 71.7,39.1 71.7,30.3 71.7,29.3 71.8,28.4 71.9,27.7 72.1,27.2 72.2,26.9 72.5,26.7 
					72.7,26.4 				"/>
				<polygon id="Fill-7" class="st0" points="98.3,39.1 104.3,39.1 104.3,21.3 98.3,21.3 				"/>
				<path id="Fill-8" class="st0" d="M49,27.3l0.3-0.3l0.3-0.3l0.7-0.4l0.7-0.2l0.4-0.1h0.4h0.4l0.4,0.1l0.3,0.1l0.4,0.1l0.3,0.1
					l0.3,0.2l0.3,0.3l0.3,0.3l0.2,0.3l0.2,0.3l0.2,0.3l0.2,0.4l0.2,0.8l0.1,0.4l0,0.4l0,0.4L55.6,31l-0.1,0.4l-0.1,0.4l-0.2,0.3
					L55,32.4l-0.1,0.1l-0.1,0.2l-0.2,0.3l-0.3,0.3l-0.2,0.1l-0.1,0.1l-0.1,0l-0.2,0.2L53.3,34l-0.4,0.1l-0.3,0.1l-0.4,0.1l-0.4,0
					l-0.4,0L51,34.2L50.3,34l-0.7-0.4l-0.3-0.3L49,33.1l-0.3-0.3l-0.2-0.3l-0.2-0.4l-0.1-0.3L48,31.3L47.9,31l-0.1-0.4v-0.4v-0.4
					l0.1-0.4l0.2-0.8l0.3-0.7L49,27.3z M55.5,39.1h6.1V21.3h-6.1V23l-0.3-0.3l-0.3-0.3L54.3,22l-0.6-0.4l-0.6-0.3L52.4,21l-0.7-0.2
					l-0.8-0.1l-0.8,0l-0.9,0l-0.9,0.1L47.5,21l-0.8,0.3L46,21.7l-0.7,0.5l-0.7,0.6L44,23.4l-0.6,0.7l-0.5,0.8l-0.4,0.8l-0.3,0.8
					l-0.3,0.8l-0.2,0.9l-0.1,1l0,1l0,0.9l0.1,1l0.2,0.9l0.3,0.9l0.1,0.4l0.2,0.4l0.2,0.4l0.2,0.4l0.5,0.8l0.6,0.7l0.6,0.6l0.7,0.6
					l0.7,0.5l0.8,0.4l0.8,0.3l0.8,0.2l0.9,0.1l0.9,0.1l0.8-0.1l0.4-0.1l0.4-0.1l0.3-0.1l0.4-0.1l0.7-0.3l0.1-0.1l0.2-0.1l0.3-0.2
					l0.6-0.4l0.3-0.3l0.1-0.1l0.2-0.1l0.2-0.3l0.3-0.3V39.1z"/>
				<polygon id="Fill-9" class="st0" points="117.5,25.9 117.9,25.9 118.3,26 118.7,26 119,26.2 119.3,26.4 119.5,26.6 119.7,26.9 
					119.9,27.2 120,27.4 120.1,27.7 120.1,27.9 120.2,28.3 120.2,28.7 120.3,29.1 120.3,29.6 120.3,30.1 120.3,39.1 126.4,39.1 
					126.4,27.8 126.3,27.3 126.3,26.9 126.3,26.1 126.1,25.4 126.1,25.1 126,24.9 125.8,24.3 125.5,23.8 125.2,23.3 124.8,22.9 
					124.3,22.4 123.8,22 123.2,21.6 122.6,21.3 122,21.1 121.3,21 120.6,20.9 119.9,20.9 119,20.9 118.5,20.9 118.2,21 117.7,21.1 
					117.4,21.2 117.1,21.3 116.8,21.5 116.1,21.8 115.5,22.2 114.9,22.8 114.3,23.5 114.3,21.3 108.3,21.3 108.3,39.1 114.3,39.1 
					114.3,29.5 114.4,28.7 114.4,28.3 114.5,28 114.8,27.3 115,27 115.2,26.8 115.4,26.6 115.6,26.4 116.2,26.1 116.8,25.9 				"/>
				<polygon id="Fill-10" class="st0" points="100,46.4 99.2,47.5 98.3,48.7 97.9,49.2 97.7,49.5 97.6,49.6 97.5,49.8 96.6,50.9 
					96.4,51 96.3,51.1 96.1,51.4 95.7,52 95.2,52.5 95.1,52.6 95,52.7 94.8,53 94.3,53.5 94.1,53.6 94,53.7 93.8,54 93.5,54.2 
					93.4,54.4 93.3,54.5 92.8,55 92.6,55.2 92.4,55.3 92.3,55.5 91.8,56 91.3,56.4 91,56.6 90.9,56.8 90.8,56.9 89.8,57.9 
					89.6,57.9 89.5,58 89.2,58.3 88.7,58.7 87.6,59.6 86.5,60.5 85.3,61.3 83.9,62.3 82.4,63.2 81,64 80.3,64.4 79.6,64.8 
					78.8,65.2 78.4,65.3 78.2,65.4 78.1,65.5 76.6,66.2 75.2,66.8 73.7,67.4 72.2,67.8 70.8,68.2 69.3,68.6 67.8,68.9 66.3,69.1 
					65.6,69.1 64.9,69.3 63.4,69.3 62.6,69.4 62.2,69.4 62,69.4 61.9,69.4 60.4,69.3 58.9,69.3 57.4,69.1 55.9,68.9 54.4,68.6 
					52.9,68.2 51.4,67.8 50,67.4 48.5,66.8 47.1,66.2 45.6,65.5 44.2,64.8 42.7,64 41.3,63.2 39.8,62.3 38.4,61.3 37.2,60.5 
					36.1,59.6 35,58.7 34,57.9 32.9,56.9 31.9,56 29.9,54 28,52 27.1,50.9 26.2,49.8 24.5,47.5 23.7,46.4 23,45.2 20.2,46.9 
					20.9,48.5 21.7,50 22.5,51.5 23.4,52.9 24.3,54.3 25.3,55.7 26.3,57 27.3,58.3 28.4,59.5 29.5,60.7 30.7,61.9 31.9,63 
					33.2,64.1 34.5,65.1 35.8,66.1 37.2,67.1 38.6,67.9 40,68.8 41.5,69.6 42.9,70.3 44.4,71 45.9,71.6 47.4,72.1 49,72.6 
					50.5,73.1 52.1,73.4 53.7,73.7 55.3,74 56.9,74.2 58.5,74.4 60.2,74.5 61.9,74.5 62.7,74.5 62.9,74.5 63.1,74.5 63.5,74.5 
					65.2,74.4 66,74.3 66.8,74.2 67.6,74.1 68,74.1 68.5,74 69.2,73.9 70,73.7 70.8,73.6 71.6,73.4 73.2,73.1 74,72.8 74.8,72.6 
					76.3,72.1 77,71.8 77.4,71.7 77.8,71.6 78.1,71.4 78.5,71.3 79.3,71 80.8,70.3 82.2,69.6 83.7,68.8 84.4,68.4 84.7,68.1 
					85.1,67.9 86.5,67.1 87.2,66.6 87.9,66.1 89.2,65.1 90.5,64.1 91.8,63 93,61.9 94.2,60.7 95.3,59.5 96.4,58.3 97.4,57 
					97.9,56.3 98.2,56 98.4,55.7 99.4,54.3 100.3,52.9 101.2,51.5 101.4,51.1 101.6,50.7 102,50 102.8,48.5 103.6,46.9 100.8,45.2 
									"/>
				<path id="Fill-11" class="st0" d="M136.5,20.7l-0.9,0.1l-0.8,0.2l-0.8,0.3l-0.8,0.4l-0.7,0.5l-0.7,0.6l-0.6,0.7l-0.6,0.7
					l-0.5,0.8l-0.4,0.8l-0.3,0.8l-0.3,0.8l-0.2,0.9l-0.1,1l0,1l0,0.9l0.1,1l0.2,0.9l0.3,0.9l0.1,0.4l0.2,0.4l0.2,0.4l0.2,0.4
					l0.5,0.8l0.6,0.7l0.6,0.6l0.7,0.6l0.7,0.5l0.8,0.4l0.8,0.3l0.8,0.2l0.9,0.1l0.9,0.1l0.8-0.1l0.4-0.1l0.4-0.1l0.3-0.1l0.4-0.1
					l0.7-0.3l0.1-0.1l0.2-0.1l0.3-0.2l0.6-0.4L142,38l0.1-0.1l0.2-0.1l0.2-0.3l0.3-0.3v2h6V21.3h-6V23l-0.3-0.3l-0.3-0.3l-0.6-0.5
					l-0.6-0.4l-0.6-0.3l-0.7-0.3l-0.4-0.1l-0.3-0.1l-0.8-0.1l-0.8,0L136.5,20.7z M138.7,34.2l-0.4-0.1l-0.7-0.2l-0.7-0.4l-0.3-0.3
					l-0.3-0.3l-0.3-0.3l-0.2-0.3l-0.2-0.4l-0.1-0.3l-0.2-0.4l-0.1-0.4l-0.1-0.4v-0.4v-0.4l0.1-0.4l0.2-0.8l0.3-0.7l0.5-0.6l0.3-0.3
					l0.3-0.3l0.7-0.4l0.7-0.2l0.4-0.1h0.4h0.4l0.4,0.1l0.3,0.1l0.4,0.1l0.3,0.1l0.3,0.2l0.3,0.3l0.3,0.3l0.2,0.3l0.2,0.3l0.2,0.3
					l0.2,0.4l0.2,0.8l0.1,0.4l0,0.4l0,0.4l-0.1,0.4l-0.1,0.4l-0.1,0.4l-0.2,0.3l-0.2,0.3l-0.1,0.1l-0.1,0.2l-0.2,0.3l-0.3,0.3
					l-0.2,0.1l-0.1,0.1l-0.1,0l-0.2,0.2l-0.3,0.2l-0.4,0.1l-0.3,0.1l-0.4,0.1l-0.4,0L138.7,34.2z"/>
			</g>
		</g>
	</g>
</g>
</svg>
