<?xml version="1.0" encoding="UTF-8"?>
<svg width="11px" height="16px" viewBox="0 0 11 16" version="1.1" xmlns="http://www.w3.org/2000/svg" xmlns:xlink="http://www.w3.org/1999/xlink">
    <!-- Generator: Sketch 49.1 (51147) - http://www.bohemiancoding.com/sketch -->
    <title>Shape</title>
    <desc>Created with Sketch.</desc>
    <defs>
        <path d="M147.580358,15.437027 L153.586876,21.8741277 C154.137708,22.4644472 154.137708,23.4301802 153.586876,24.019828 L153.085549,24.5577641 C152.53597,25.147412 151.634209,25.147412 151.084004,24.5577641 L146.5,19.6451515 L141.915996,24.5577641 C141.365791,25.147412 140.46403,25.147412 139.914451,24.5577641 L139.413124,24.019828 C138.862292,23.4301802 138.862292,22.4644472 139.413124,21.8741277 L145.420895,15.437027 C145.716051,15.1200409 146.112099,14.979009 146.500627,15.0025143 C146.887275,14.979009 147.283949,15.1200409 147.580358,15.437027 Z" id="path-1"></path>
    </defs>
    <g id="Symbols" stroke="none" stroke-width="1" fill="none" fill-rule="evenodd">
        <g id="Header_top" transform="translate(-142.000000, -12.000000)" fill-rule="nonzero">
            <g id="Group-3" transform="translate(1.000000, 0.000000)">
                <g id="Shape" transform="translate(146.500000, 20.000000) scale(-1, -1) rotate(90.000000) translate(-146.500000, -20.000000) ">
                    <use fill="#008FC6" fill-rule="evenodd" xlink:href="#path-1"></use>
                    <path stroke="#F6F6F6" stroke-width="1" d="M147.214989,15.7783556 C147.031326,15.5820404 146.785205,15.486136 146.470433,15.5016018 C146.214549,15.4861212 145.969324,15.5817577 145.786428,15.7781803 L139.778693,22.2152431 C139.407135,22.6134367 139.407135,23.2809719 139.778905,23.6789405 L140.280213,24.2168567 C140.632116,24.5944158 141.19793,24.5944158 141.550428,24.2166488 L146.5,18.9122615 L151.449572,24.2166488 C151.80207,24.5944158 152.367884,24.5944158 152.719768,24.2168767 L153.221501,23.6785052 C153.592865,23.2809719 153.592865,22.6134367 153.221307,22.2152431 L147.214989,15.7783556 Z"></path>
                </g>
            </g>
        </g>
    </g>
</svg>