<?xml version="1.0" encoding="UTF-8"?>
<svg width="123px" height="75px" viewBox="0 0 123 75" version="1.1" xmlns="http://www.w3.org/2000/svg" xmlns:xlink="http://www.w3.org/1999/xlink">
    <!-- Generator: Sketch 49.1 (51147) - http://www.bohemiancoding.com/sketch -->
    <title>Group 5</title>
    <desc>Created with Sketch.</desc>
    <defs></defs>
    <g id="Trabaja-con-Nosotros--III" stroke="none" stroke-width="1" fill="none" fill-rule="evenodd">
        <g id="opcion_B" transform="translate(-266.000000, -3979.000000)">
            <g id="Group-5" transform="translate(265.000000, 3979.000000)">
                <g id="Group-4">
                    <g id="noun_Paper-Airplane_1200388" transform="translate(44.000000, 0.000000)" fill="#008FC6" fill-rule="nonzero">
                        <path d="M79.9904109,1.36745237 C80.0031964,1.2672195 80.0031964,1.16578018 79.9904109,1.0655473 C79.9904109,1.0655473 79.9904109,1.00339038 79.9904109,0.976751695 C79.9640964,0.845372572 79.9158381,0.719312118 79.8476419,0.603810139 L79.7941036,0.523894091 C79.7623973,0.47089069 79.7265971,0.420421047 79.6870269,0.372941556 L79.5799502,0.284145948 L79.4907197,0.213109461 C79.3922704,0.144157935 79.2839906,0.0902819284 79.1694896,0.0532773652 C79.0424017,0.0330295816 78.912886,0.0330295816 78.7857981,0.0532773652 L78.6787214,0.0532773652 L78.5181064,0 L0.887508228,21.0978366 C0.362877245,21.2434499 6.65598587e-17,21.719059 0,22.2610591 C-6.57859069e-17,22.8030592 0.362877245,23.2786683 0.887508228,23.4242816 L22.1689998,29.3558282 L25.5865307,54.0143687 C25.6020272,54.078168 25.6229222,54.1405476 25.6489921,54.2008395 C25.6603418,54.2521222 25.6752493,54.3025606 25.6936074,54.3517921 C25.7519949,54.483532 25.8335868,54.6038196 25.93453,54.7069745 C26.0407292,54.8084691 26.1647274,54.8897284 26.3003753,54.9467226 L26.4520673,54.9467226 C26.5129296,54.9696412 26.5756087,54.9874623 26.6394515,55 L26.7643743,55 C26.9078551,54.9986183 27.0499144,54.971548 27.183758,54.920084 L27.2908347,54.8668066 C27.3913549,54.8178387 27.4844686,54.7550691 27.5674494,54.6803358 L27.6299108,54.6803358 L42.2369556,39.9580239 L61.3947595,52.229577 C61.7079249,52.4223409 62.0921047,52.4631774 62.4391199,52.3405875 C62.786135,52.2179976 63.0584448,51.9452434 63.179371,51.5991282 L79.9547186,1.58056183 C79.9547186,1.58056183 79.9547186,1.51840491 79.9547186,1.48288666 C79.968572,1.44503464 79.9804848,1.40650692 79.9904109,1.36745237 Z M33.9920507,32.6945431 L33.9295893,32.7478205 L33.8492818,32.818857 L33.7422051,32.9431708 L33.6886667,33.0142073 C33.6548172,33.0651099 33.6249843,33.1185474 33.5994362,33.1740394 L33.5994362,33.2273168 L27.3532961,49.095092 L24.5693022,29.098321 L67.2661312,8.19583468 L33.9920507,32.6945431 Z M66.918132,5.67403939 L23.13269,27.1181789 L5.75949749,22.2788182 L66.918132,5.67403939 Z M30.0659055,48.8375848 L35.3037401,35.5182435 L40.1489602,38.5905715 L30.0659055,48.8375848 Z M61.3947595,49.3969971 L36.847429,33.6002583 L76.4390341,4.43978043 L61.3947595,49.3969971 Z" id="Shape"></path>
                    </g>
                    <g id="noun_message_1044776" transform="translate(32.000000, 61.500000) rotate(-33.000000) translate(-32.000000, -61.500000) translate(4.000000, 47.000000)">
                        <g id="Group">
                            <path d="M23.614,18.906 C24.655,18.599 24.451,18.227 23.001,17.794 C22.26,17.628 21.595,17.772 21.018,18.232 C20.861,18.337 20.722,18.449 20.601,18.567 C21.428,19.277 22.635,19.202 23.614,18.906 Z" id="Shape"></path>
                            <path d="M50.581,26.266 C51.807,26.504 52.956,26.979 53.866,27.857 C54.989,28.948 56.517,27.061 55.401,25.977 C54.21,24.82 52.597,24.184 50.986,23.869 C49.445,23.568 49.046,25.97 50.581,26.266 Z" id="Shape" fill="#008FC6" fill-rule="nonzero"></path>
                            <path d="M42.766,23.072 C40.776,22.818 38.141,22.68 36.265,23.525 C34.846,24.173 35.713,26.445 37.143,25.794 C38.623,25.12 40.787,25.268 42.359,25.468 C43.911,25.671 44.32,23.275 42.766,23.072 Z" id="Shape" fill="#008FC6" fill-rule="nonzero"></path>
                            <path d="M28.121,24.309 C26.288,24.583 24.126,24.766 22.414,23.892 C21.399,23.378 20.338,22.176 20.005,20.933 C20.664,21.275 21.381,21.492 22.142,21.538 C25.176,21.718 29.189,18.09 25.104,16.046 C22.863,14.922 20.681,15.372 19.247,16.716 C18.804,15.84 18.534,14.863 18.781,14.069 C19.243,12.592 17.036,11.569 16.57,13.063 C15.945,15.077 16.531,17.379 17.83,19.075 C17.596,19.905 17.531,20.831 17.706,21.812 C18.562,26.593 24.506,27.302 28.368,26.727 C29.915,26.496 29.673,24.075 28.121,24.309 Z M21.018,18.232 C21.595,17.772 22.259,17.628 23.001,17.794 C24.451,18.227 24.655,18.599 23.614,18.906 C22.635,19.202 21.428,19.277 20.601,18.567 C20.722,18.449 20.861,18.336 21.018,18.232 Z" id="Shape" fill="#008FC6" fill-rule="nonzero"></path>
                            <path d="M16.625,7.649 C15.996,5.732 15.35,3.482 13.537,2.337 C12.234,1.513 10.683,3.385 12,4.218 C13.447,5.133 13.863,7.005 14.366,8.527 C14.852,10.015 17.115,9.135 16.625,7.649 Z" id="Shape" fill="#008FC6" fill-rule="nonzero"></path>
                            <path d="M6.306,0.521 C4.221,0.169 2.475,-0.475 0.494,0.62 C-0.086,0.936 -0.128,1.831 0.227,2.314 C0.652,2.897 1.342,2.899 1.925,2.584 C3.072,1.947 4.716,2.712 5.9,2.913 C7.444,3.172 7.848,0.776 6.306,0.521 Z" id="Shape" fill="#008FC6" fill-rule="nonzero"></path>
                        </g>
                    </g>
                </g>
            </g>
        </g>
    </g>
</svg>