<?xml version="1.0" encoding="UTF-8"?>
<svg width="20px" height="20px" viewBox="0 0 20 20" version="1.1" xmlns="http://www.w3.org/2000/svg" xmlns:xlink="http://www.w3.org/1999/xlink">
    <!-- Generator: Sketch 49.1 (51147) - http://www.bohemiancoding.com/sketch -->
    <title>Shape</title>
    <desc>Created with Sketch.</desc>
    <defs></defs>
    <g id="Trabaja-con-Nosotros--II" stroke="none" stroke-width="1" fill="none" fill-rule="evenodd">
        <g id="001_B" transform="translate(-272.000000, -89.000000)" fill="#008FC6" fill-rule="nonzero">
            <g id="if_home_house_real_estate_392500" transform="translate(272.000000, 89.000000)">
                <path d="M19.1082759,9.51241379 L10.1427586,0.546896552 C9.87310345,0.277241379 9.43724138,0.277241379 9.16758621,0.546896552 L0.202068966,9.51241379 C-0.0675862069,9.78206897 -0.0675862069,10.217931 0.202068966,10.4875862 C0.471724138,10.7572414 0.907586207,10.7572414 1.17724138,10.4875862 L9.65517241,2.00965517 L15.182069,7.53655172 C15.1813793,7.5537931 15.1724138,7.56896552 15.1724138,7.5862069 L15.1724138,17.9310345 L4.13793103,17.9310345 L4.13793103,11.0344828 C4.13793103,10.6531034 3.82896552,10.3448276 3.44827586,10.3448276 C3.06758621,10.3448276 2.75862069,10.6531034 2.75862069,11.0344828 L2.75862069,18.6206897 C2.75862069,19.002069 3.06758621,19.3103448 3.44827586,19.3103448 L15.862069,19.3103448 C16.2434483,19.3103448 16.5517241,19.002069 16.5517241,18.6206897 L16.5517241,8.9062069 L18.1331034,10.4875862 C18.2675862,10.622069 18.4441379,10.6896552 18.6206897,10.6896552 C18.7972414,10.6896552 18.9737931,10.622069 19.1082759,10.4875862 C19.377931,10.217931 19.377931,9.78206897 19.1082759,9.51241379 Z" id="Shape"></path>
            </g>
        </g>
    </g>
</svg>