<?xml version="1.0" encoding="UTF-8"?>
<svg width="21px" height="20px" viewBox="0 0 21 20" version="1.1" xmlns="http://www.w3.org/2000/svg" xmlns:xlink="http://www.w3.org/1999/xlink">
    <!-- Generator: Sketch 49.1 (51147) - http://www.bohemiancoding.com/sketch -->
    <title>ok</title>
    <desc>Created with Sketch.</desc>
    <defs>
        <path d="M18.7949219,0.249348958 L20.7825521,1.76497396 C20.8092448,1.79361979 20.8372396,1.82617188 20.8639323,1.86653646 C20.890625,1.90690104 20.9049479,1.94791667 20.9049479,1.98893229 C20.9192708,2.04361979 20.9192708,2.09440104 20.9049479,2.14322917 C20.890625,2.19205729 20.8704427,2.23502604 20.84375,2.27539063 L7.81054687,19.452474 C7.78190104,19.4934896 7.74544271,19.5234375 7.69856771,19.5442708 C7.64973958,19.5644531 7.59895833,19.5807292 7.54361979,19.5950521 L7.5234375,19.5950521 C7.46875,19.5950521 7.421875,19.5846354 7.37890625,19.5644531 C7.3359375,19.5442708 7.30338542,19.5195313 7.27734375,19.4934896 L0.184895833,12.4029948 C0.15625,12.3619792 0.134114583,12.3216146 0.113932292,12.280599 C0.09375,12.2395833 0.0833333333,12.1992188 0.0833333333,12.1582031 C0.0833333333,12.1035156 0.09375,12.0566406 0.113932292,12.0136719 C0.134114583,11.9707031 0.158854167,11.938151 0.184895833,11.9121094 L1.94661458,10.1295573 C2.015625,10.0605469 2.10091146,10.0279948 2.203125,10.0279948 C2.30533854,10.0279948 2.390625,10.0625 2.45963542,10.1295573 L7.234375,14.9042969 L18.281901,0.331380208 C18.3365885,0.25 18.4140625,0.201171875 18.5182292,0.186848958 C18.6223958,0.172526042 18.7135417,0.192708333 18.7949219,0.248046875 L18.7949219,0.249348958 Z" id="path-1"></path>
    </defs>
    <g id="Trabaja-con-Nosotros--III" stroke="none" stroke-width="1" fill="none" fill-rule="evenodd">
        <g id="postula-exito" transform="translate(-627.000000, -688.000000)">
            <g id="icons-/-misc-/-ok" transform="translate(627.000000, 688.000000)">
                <mask id="mask-2" fill="white">
                    <use xlink:href="#path-1"></use>
                </mask>
                <use id="ok" fill="#FFFFFF" fill-rule="nonzero" xlink:href="#path-1"></use>
            </g>
        </g>
    </g>
</svg>