<?xml version="1.0" encoding="UTF-8"?>
<svg width="33px" height="32px" viewBox="0 0 33 32" version="1.1" xmlns="http://www.w3.org/2000/svg" xmlns:xlink="http://www.w3.org/1999/xlink">
    <!-- Generator: Sketch 49.1 (51147) - http://www.bohemiancoding.com/sketch -->
    <title>if_instagram_281827</title>
    <desc>Created with Sketch.</desc>
    <defs></defs>
    <g id="Symbols" stroke="none" stroke-width="1" fill="none" fill-rule="evenodd">
        <g id="Footer" transform="translate(-132.000000, -257.000000)" fill="#FFFFFF">
            <g id="if_instagram_281827" transform="translate(132.307692, 257.000000)">
                <path d="M16,1.6 C23.94,1.6 30.4,8.06 30.4,16 C30.4,23.94 23.9408,30.4 16,30.4 C8.0592,30.4 1.6,23.94 1.6,16 C1.6,8.06 8.06,1.6 16,1.6 Z M16,0 C7.1632,0 0,7.1632 0,16 C0,24.8376 7.1632,32 16,32 C24.8352,32 32,24.8376 32,16 C32,7.1632 24.836,0 16,0 Z" id="Shape" fill-rule="nonzero"></path>
                <path d="M10.0296,8.5128 L21.9704,8.5128 C23.1032,8.5128 24.0312,9.44 24.0312,10.5744 L24.0312,22.5144 C24.0312,23.6488 23.1032,24.576 21.9704,24.576 L10.0296,24.576 C8.896,24.576 7.968,23.6488 7.968,22.5144 L7.968,10.5744 C7.968,9.44 8.896,8.5128 10.0296,8.5128 Z M19.6704,10.2976 C19.272,10.2976 18.9472,10.6232 18.9472,11.0208 L18.9472,12.752 C18.9472,13.1496 19.272,13.4744 19.6704,13.4744 L21.4864,13.4744 C21.8832,13.4744 22.208,13.1496 22.208,12.752 L22.208,11.0208 C22.208,10.6232 21.8832,10.2976 21.4864,10.2976 L19.6704,10.2976 Z M22.216,15.3056 L20.8016,15.3056 C20.936,15.7424 21.008,16.2048 21.008,16.6848 C21.008,19.3568 18.772,21.5224 16.016,21.5224 C13.2584,21.5224 11.0216,19.3568 11.0216,16.6848 C11.0216,16.2048 11.0944,15.7424 11.228,15.3056 L9.7528,15.3056 L9.7528,22.0912 C9.7528,22.4424 10.0392,22.7304 10.3912,22.7304 L21.5776,22.7304 C21.928,22.7304 22.2152,22.4432 22.2152,22.0912 L22.2152,15.3056 L22.216,15.3056 Z M16.016,13.384 C14.2328,13.384 12.7888,14.7832 12.7888,16.5096 C12.7888,18.2368 14.2328,19.6368 16.016,19.6368 C17.7968,19.6368 19.2408,18.2368 19.2408,16.5096 C19.2408,14.7832 17.7968,13.384 16.016,13.384 Z" id="Shape"></path>
            </g>
        </g>
    </g>
</svg>