<?xml version="1.0" encoding="UTF-8"?>
<svg width="44px" height="44px" viewBox="0 0 44 44" version="1.1" xmlns="http://www.w3.org/2000/svg" xmlns:xlink="http://www.w3.org/1999/xlink">
    <!-- Generator: Sketch 49.1 (51147) - http://www.bohemiancoding.com/sketch -->
    <title>Group 16</title>
    <desc>Created with Sketch.</desc>
    <defs></defs>
    <g id="Trabaja-con-Nosotros--III" stroke="none" stroke-width="1" fill="none" fill-rule="evenodd">
        <g id="opcion_B" transform="translate(-328.000000, -2483.000000)">
            <g id="Group-16" transform="translate(329.000000, 2484.000000)">
                <circle id="Oval-4" stroke="#FFFFFF" cx="21" cy="21" r="21"></circle>
                <path d="M21.75,20.25 L25.25,20.25 C25.664,20.25 26,20.586 26,21 C26,21.414 25.664,21.75 25.25,21.75 L21.75,21.75 L21.75,25.25 C21.75,25.664 21.414,26 21,26 C20.586,26 20.25,25.664 20.25,25.25 L20.25,21.75 L16.75,21.75 C16.336,21.75 16,21.414 16,21 C16,20.586 16.336,20.25 16.75,20.25 L20.25,20.25 L20.25,16.75 C20.25,16.336 20.586,16 21,16 C21.414,16 21.75,16.336 21.75,16.75 L21.75,20.25 Z" id="Page-1" fill="#FFFFFF"></path>
            </g>
        </g>
    </g>
</svg>