<?xml version="1.0" encoding="UTF-8"?>
<svg width="32px" height="32px" viewBox="0 0 32 32" version="1.1" xmlns="http://www.w3.org/2000/svg" xmlns:xlink="http://www.w3.org/1999/xlink">
    <!-- Generator: Sketch 49.1 (51147) - http://www.bohemiancoding.com/sketch -->
    <title>if_Facebook_Rounded_1181255</title>
    <desc>Created with Sketch.</desc>
    <defs></defs>
    <g id="Symbols" stroke="none" stroke-width="1" fill="none" fill-rule="evenodd">
        <g id="Footer" transform="translate(-51.000000, -257.000000)" fill="#FFFFFF" fill-rule="nonzero">
            <g id="if_Facebook_Rounded_1181255" transform="translate(51.000000, 257.000000)">
                <path d="M16.0107541,0.0435409836 C7.21259016,0.0435409836 0.054557377,7.20157377 0.054557377,16 C0.054557377,24.7986885 7.21259016,31.956459 16.0107541,31.956459 C24.8091803,31.956459 31.9674754,24.7986885 31.9674754,16 C31.9672131,7.20157377 24.808918,0.0435409836 16.0107541,0.0435409836 Z M16.0107541,30.3826885 C8.0802623,30.3826885 1.62832787,23.9307541 1.62832787,16 C1.62832787,8.0695082 8.0802623,1.61731148 16.0107541,1.61731148 C23.9412459,1.61731148 30.3937049,8.0695082 30.3937049,16 C30.3934426,23.9307541 23.9412459,30.3826885 16.0107541,30.3826885 Z" id="Shape"></path>
                <path d="M20.9290492,6.63711475 L17.4678033,6.63711475 C17.4596721,6.63711475 17.4518033,6.63737705 17.4441967,6.63816393 C13.9496393,6.64918033 13.4932459,9.08931148 13.4914098,11.2220328 C13.4866885,11.2419672 13.4840656,11.2624262 13.4840656,11.2836721 L13.4840656,12.7808525 L11.092459,12.7808525 C10.9476721,12.7808525 10.8301639,12.8983607 10.8301639,13.0431475 L10.8301639,16.7354754 C10.8301639,16.8805246 10.9476721,16.9977705 11.092459,16.9977705 L13.4840656,16.9977705 L13.4840656,25.1003279 C13.4840656,25.245377 13.6015738,25.362623 13.7463607,25.362623 L17.2367213,25.362623 C17.3817705,25.362623 17.4990164,25.245377 17.4990164,25.1003279 L17.4990164,16.9980328 L20.9287869,16.9980328 C21.0738361,16.9980328 21.191082,16.8807869 21.191082,16.7357377 L21.191082,13.0434098 C21.191082,12.898623 21.0738361,12.7811148 20.9287869,12.7811148 L17.2367213,12.7811148 L17.2367213,10.7963279 L20.9287869,10.7963279 C21.0738361,10.7963279 21.191082,10.6788197 21.191082,10.5340328 L21.191082,6.89940984 C21.1913443,6.75462295 21.0738361,6.63711475 20.9290492,6.63711475 Z" id="Shape"></path>
            </g>
        </g>
    </g>
</svg>