<?xml version="1.0" encoding="UTF-8"?>
<svg width="24px" height="21px" viewBox="0 0 24 21" version="1.1" xmlns="http://www.w3.org/2000/svg" xmlns:xlink="http://www.w3.org/1999/xlink">
    <!-- Generator: Sketch 49.1 (51147) - http://www.bohemiancoding.com/sketch -->
    <title>“</title>
    <desc>Created with Sketch.</desc>
    <defs></defs>
    <g id="Trabaja-con-Nosotros--III" stroke="none" stroke-width="1" fill="none" fill-rule="evenodd" opacity="0.5">
        <g id="opcion_B" transform="translate(-387.000000, -2961.000000)" fill="#FD8017">
            <g id="Group" transform="translate(185.000000, 2893.000000)">
                <path d="M212.265896,83.6069364 C212.265896,84.8554976 211.768791,86.023116 210.774566,87.1098266 C209.780342,88.1965372 208.589602,88.7398844 207.202312,88.7398844 C205.768779,88.7398844 204.543358,88.1502949 203.526012,86.9710983 C202.508665,85.7919016 202,84.3005871 202,82.4971098 C202,79.8612585 202.878604,77.1329621 204.635838,74.3121387 C206.393072,71.4913154 208.566461,69.3872902 211.156069,68 L213.16763,72.1618497 C211.687854,73.4104109 210.60116,74.4508629 209.907514,75.283237 C209.213869,76.1156111 208.728325,77.2254266 208.450867,78.6127168 C209.283241,78.6127168 210.127163,79.1329428 210.982659,80.1734104 C211.838155,81.213878 212.265896,82.3583753 212.265896,83.6069364 Z M225.16763,83.6069364 C225.16763,84.8554976 224.658965,86.023116 223.641618,87.1098266 C222.624272,88.1965372 221.421972,88.7398844 220.034682,88.7398844 C218.601149,88.7398844 217.375728,88.1502949 216.358382,86.9710983 C215.341035,85.7919016 214.83237,84.3005871 214.83237,82.4971098 C214.83237,79.8612585 215.699413,77.1329621 217.433526,74.3121387 C219.167639,71.4913154 221.329467,69.3872902 223.919075,68 L226,72.1618497 C224.520224,73.4104109 223.433529,74.4508629 222.739884,75.283237 C222.046239,76.1156111 221.560695,77.2254266 221.283237,78.6127168 C221.79191,78.6127168 222.346818,78.8554889 222.947977,79.3410405 C223.549136,79.826592 224.069362,80.4624238 224.508671,81.2485549 C224.947979,82.034686 225.16763,82.8208053 225.16763,83.6069364 Z" id="“" transform="translate(214.000000, 78.369942) scale(-1, -1) translate(-214.000000, -78.369942) "></path>
            </g>
        </g>
    </g>
</svg>