<?xml version="1.0" encoding="UTF-8"?>
<svg width="24px" height="21px" viewBox="0 0 24 21" version="1.1" xmlns="http://www.w3.org/2000/svg" xmlns:xlink="http://www.w3.org/1999/xlink">
    <!-- Generator: Sketch 49.1 (51147) - http://www.bohemiancoding.com/sketch -->
    <title>“</title>
    <desc>Created with Sketch.</desc>
    <defs></defs>
    <g id="Trabaja-con-Nosotros--III" stroke="none" stroke-width="1" fill="none" fill-rule="evenodd" opacity="0.5">
        <g id="futuro-profesional" transform="translate(-168.000000, -1319.000000)" fill="#FD8017">
            <path d="M178.265896,1334.60694 C178.265896,1335.8555 177.768791,1337.02312 176.774566,1338.10983 C175.780342,1339.19654 174.589602,1339.73988 173.202312,1339.73988 C171.768779,1339.73988 170.543358,1339.15029 169.526012,1337.9711 C168.508665,1336.7919 168,1335.30059 168,1333.49711 C168,1330.86126 168.878604,1328.13296 170.635838,1325.31214 C172.393072,1322.49132 174.566461,1320.38729 177.156069,1319 L179.16763,1323.16185 C177.687854,1324.41041 176.60116,1325.45086 175.907514,1326.28324 C175.213869,1327.11561 174.728325,1328.22543 174.450867,1329.61272 C175.283241,1329.61272 176.127163,1330.13294 176.982659,1331.17341 C177.838155,1332.21388 178.265896,1333.35838 178.265896,1334.60694 Z M191.16763,1334.60694 C191.16763,1335.8555 190.658965,1337.02312 189.641618,1338.10983 C188.624272,1339.19654 187.421972,1339.73988 186.034682,1339.73988 C184.601149,1339.73988 183.375728,1339.15029 182.358382,1337.9711 C181.341035,1336.7919 180.83237,1335.30059 180.83237,1333.49711 C180.83237,1330.86126 181.699413,1328.13296 183.433526,1325.31214 C185.167639,1322.49132 187.329467,1320.38729 189.919075,1319 L192,1323.16185 C190.520224,1324.41041 189.433529,1325.45086 188.739884,1326.28324 C188.046239,1327.11561 187.560695,1328.22543 187.283237,1329.61272 C187.79191,1329.61272 188.346818,1329.85549 188.947977,1330.34104 C189.549136,1330.82659 190.069362,1331.46242 190.508671,1332.24855 C190.947979,1333.03469 191.16763,1333.82081 191.16763,1334.60694 Z" id="“"></path>
        </g>
    </g>
</svg>