<?xml version="1.0" encoding="UTF-8"?>
<svg width="14px" height="18px" viewBox="0 0 14 18" version="1.1" xmlns="http://www.w3.org/2000/svg" xmlns:xlink="http://www.w3.org/1999/xlink">
    <!-- Generator: Sketch 49.1 (51147) - http://www.bohemiancoding.com/sketch -->
    <title>if_location_115718</title>
    <desc>Created with Sketch.</desc>
    <defs></defs>
    <g id="Trabaja-con-Nosotros--III" stroke="none" stroke-width="1" fill="none" fill-rule="evenodd">
        <g id="nuestros-centros-03" transform="translate(-915.000000, -473.000000)" fill="#FD8017" stroke="#FD8017">
            <g id="if_location_115718" transform="translate(916.000000, 474.000000)">
                <path d="M6.06416842,8.873 C7.73608421,8.873 9.09574737,7.527 9.09574737,5.873 C9.09574737,4.219 7.73608421,2.873 6.06416842,2.873 C4.39225263,2.873 3.03258947,4.2185 3.03258947,5.873 C3.03258947,7.5275 4.39225263,8.873 6.06416842,8.873 Z M6.06416842,3.373 C7.45768421,3.373 8.59048421,4.494 8.59048421,5.873 C8.59048421,7.252 7.45768421,8.373 6.06416842,8.373 C4.67065263,8.373 3.53785263,7.252 3.53785263,5.873 C3.53785263,4.494 4.67065263,3.373 6.06416842,3.373 Z" id="Shape"></path>
                <path d="M6.06315789,0 C2.71932632,0 0,2.658 0,6.0005 C0,9.5005 3.03208421,13.081 5.24261053,15.5975 C5.25069474,15.6075 5.60538947,16 6.04395789,16 C6.04496842,16 6.08084211,16 6.08286316,16 C6.52092632,16 6.87612632,15.6075 6.88421053,15.5975 C9.09574737,13.081 12.1273263,9.501 12.1273263,6.0005 C12.1273263,2.658 9.40749474,0 6.06315789,0 Z M6.12227368,14.9415 C6.11166316,14.9515 6.08084211,14.9735 6.05406316,14.9905 C6.04901053,14.977 6.01162105,14.9475 5.98888421,14.924 C4.13709474,12.8155 1.01052632,9.257 1.01052632,6.0005 C1.01052632,3.2435 3.27764211,1 6.06315789,1 C8.85018947,1 11.1168,3.2435 11.1168,6.001 C11.1168,9.257 7.99023158,12.8155 6.12227368,14.9415 Z" id="Shape"></path>
            </g>
        </g>
    </g>
</svg>