<?xml version="1.0" encoding="UTF-8"?>
<svg width="75px" height="75px" viewBox="0 0 75 75" version="1.1" xmlns="http://www.w3.org/2000/svg" xmlns:xlink="http://www.w3.org/1999/xlink">
    <!-- Generator: Sketch 49.1 (51147) - http://www.bohemiancoding.com/sketch -->
    <title>noun_male chat_1253680</title>
    <desc>Created with Sketch.</desc>
    <defs></defs>
    <g id="Trabaja-con-Nosotros--III" stroke="none" stroke-width="1" fill="none" fill-rule="evenodd">
        <g id="opcion_B" transform="translate(-1065.000000, -3976.000000)" fill="#008FC6" fill-rule="nonzero">
            <g id="noun_male-chat_1253680" transform="translate(1065.000000, 3976.000000)">
                <g id="Group">
                    <path d="M73.4448589,23.972252 C72.609879,23.972252 71.9327621,24.6474531 71.9327621,25.4802949 L71.9327621,56.9020777 L65.5043347,56.9020777 C63.1729839,50.7314678 58.8205645,45.4631702 53.1530242,41.9862265 C52.6258065,41.6628016 51.9541331,41.6923592 51.4576613,42.061126 C47.4001008,45.0745979 42.5735887,46.6673928 37.4998992,46.6673928 C32.4263105,46.6673928 27.5996976,45.0744973 23.5420363,42.061126 C23.0455645,41.6924598 22.3738911,41.6628016 21.8467742,41.9862265 C16.1792339,45.4629692 11.8270161,50.7313673 9.49556452,56.9020777 L3.0672379,56.9020777 L3.0672379,46.9549263 C3.0672379,46.122185 2.39022177,45.4468834 1.55514113,45.4468834 C0.720060484,45.4468834 0.0430443548,46.122185 0.0430443548,46.9549263 L0.0430443548,58.4101206 C0.0430443548,59.2428619 0.720060484,59.9181635 1.55514113,59.9181635 L39.5784274,59.9181635 L47.833871,74.1786193 C48.1040323,74.6452078 48.6032258,74.9326408 49.1434476,74.9326408 C49.6835685,74.9326408 50.1828629,74.6452078 50.4529234,74.1786193 L58.7084677,59.9181635 L73.4449597,59.9181635 C74.2801411,59.9181635 74.9570565,59.2428619 74.9570565,58.4101206 L74.9570565,25.4802949 C74.9569556,24.6474531 74.2800403,23.972252 73.4448589,23.972252 Z M49.4145161,56.9020777 C48.5795363,56.9020777 47.9024194,57.5771783 47.9024194,58.4101206 C47.9024194,59.2428619 48.5795363,59.9181635 49.4145161,59.9181635 L55.2164315,59.9181635 L49.1434476,70.4085121 L41.7610887,57.6560992 C41.4909274,57.1894102 40.9917339,56.9020777 40.4515121,56.9020777 L12.7529234,56.9020777 C14.8011089,52.1161528 18.2254032,47.9974866 22.5927419,45.0910858 C26.9923387,48.0993298 32.1233871,49.6835791 37.4998992,49.6835791 C42.8765121,49.6835791 48.0075605,48.0993298 52.4070565,45.0910858 C56.774496,47.9975871 60.1988911,52.1162534 62.2470766,56.9020777 L49.4145161,56.9020777 Z" id="Shape"></path>
                    <path d="M1.55514113,43.5869638 C2.39022177,43.5869638 3.0672379,42.9118633 3.0672379,42.0789209 L3.0672379,36.0783177 C3.0672379,35.2455764 2.39022177,34.5702748 1.55514113,34.5702748 C0.720060484,34.5702748 0.0430443548,35.2455764 0.0430443548,36.0783177 L0.0430443548,42.0789209 C0.0430443548,42.9118633 0.720060484,43.5869638 1.55514113,43.5869638 Z" id="Shape"></path>
                    <path d="M73.4448589,0.0673592493 L1.55514113,0.0673592493 C0.720060484,0.0673592493 0.0430443548,0.742560322 0.0430443548,1.57540214 L0.0430443548,31.259618 C0.0430443548,32.0924598 0.720060484,32.7676609 1.55514113,32.7676609 C2.39022177,32.7676609 3.0672379,32.0924598 3.0672379,31.259618 L3.0672379,3.08344504 L71.9327621,3.08344504 L71.9327621,9.825 C71.9327621,10.6578418 72.609879,11.3330429 73.4448589,11.3330429 C74.2800403,11.3330429 74.9569556,10.6578418 74.9569556,9.825 L74.9569556,1.57540214 C74.9569556,0.742560322 74.2800403,0.0673592493 73.4448589,0.0673592493 Z" id="Shape"></path>
                    <path d="M73.4448589,13.1356568 C72.609879,13.1356568 71.9327621,13.8108579 71.9327621,14.6436997 L71.9327621,20.5810657 C71.9327621,21.4139075 72.609879,22.0891086 73.4448589,22.0891086 C74.2800403,22.0891086 74.9569556,21.4139075 74.9569556,20.5810657 L74.9569556,14.6436997 C74.9569556,13.8108579 74.2800403,13.1356568 73.4448589,13.1356568 Z" id="Shape"></path>
                    <path d="M37.4998992,40.5954088 C47.0428427,40.5954088 54.8065524,32.8525134 54.8065524,23.3352547 C54.8065524,13.817996 47.0428427,6.07520107 37.4998992,6.07520107 C27.9570565,6.07520107 20.1933468,13.8180965 20.1933468,23.3353552 C20.1933468,32.8526139 27.9570565,40.5954088 37.4998992,40.5954088 Z M37.4998992,9.09128686 C44.4754032,9.09128686 50.2979839,14.1045241 51.5378024,20.7078418 C45.5063508,22.3637735 41.693246,20.623693 37.6706653,18.7878016 C33.9902218,17.1081434 30.2044355,15.3810322 24.9770161,16.4920576 C27.4082661,12.084752 32.109879,9.09128686 37.4998992,9.09128686 Z M23.6117944,20.0086126 C28.958871,18.1296917 32.4252016,19.7108244 36.4121976,21.530429 C39.4037298,22.895811 42.6647177,24.3846515 46.9082661,24.3843499 C48.3987903,24.3842493 50.0114919,24.1997654 51.7753024,23.7622319 C51.5480847,31.4196716 45.2319556,37.5794236 37.4997984,37.5794236 C29.624496,37.5794236 23.2174395,31.1895442 23.2174395,23.3353552 C23.2175403,22.1900469 23.3547379,21.076307 23.6117944,20.0086126 Z" id="Shape"></path>
                </g>
            </g>
        </g>
    </g>
</svg>