<?xml version="1.0" encoding="UTF-8"?>
<svg width="24px" height="24px" viewBox="0 0 24 24" version="1.1" xmlns="http://www.w3.org/2000/svg" xmlns:xlink="http://www.w3.org/1999/xlink">
    <!-- Generator: Sketch 49.1 (51147) - http://www.bohemiancoding.com/sketch -->
    <title>alert</title>
    <desc>Created with Sketch.</desc>
    <defs></defs>
    <g id="LICENCIAS-&gt;-CARO-2" stroke="none" stroke-width="1" fill="none" fill-rule="evenodd">
        <g id="012_licencias_dkt" transform="translate(-299.000000, -318.000000)" fill="#FB7C40" fill-rule="nonzero">
            <g id="Group-5" transform="translate(273.000000, 306.000000)">
                <g id="alert" transform="translate(26.000000, 12.000000)">
                    <path d="M12,0 C5.3835,0 0,5.3835 0,12 C0,18.6165 5.3835,24 12,24 C18.6165,24 24,18.6165 24,12 C24,5.3835 18.6165,0 12,0 Z M12,22.8 C6.04550257,22.8 1.2,17.9544974 1.2,12 C1.2,6.04550257 6.04550257,1.2 12,1.2 C17.9544974,1.2 22.8,6.04550257 22.8,12 C22.8,17.9544974 17.9544974,22.8 12,22.8 Z M13.36425,16.97775 C13.36425,16.25025 12.77475,15.66075 12.04725,15.66075 C11.31975,15.66075 10.73025,16.25025 10.73025,16.97775 C10.73025,17.70525 11.31975,18.29475 12.04725,18.29475 C12.77475,18.29475 13.36425,17.70525 13.36425,16.97775 Z M12.04725,5.70225 C11.31825,5.70225 10.73025,6.2925 10.73025,7.01925 L11.16825,13.9755 C11.16825,14.46075 11.562,14.8545 12.04725,14.8545 C12.5325,14.8545 12.92625,14.46075 12.92625,13.9755 L13.36425,7.01925 C13.36425,6.2925 12.77625,5.70225 12.04725,5.70225 Z" id="path-1"></path>
                </g>
            </g>
        </g>
    </g>
</svg>