<?xml version="1.0" encoding="UTF-8"?>
<svg width="16px" height="16px" viewBox="0 0 16 16" version="1.1" xmlns="http://www.w3.org/2000/svg" xmlns:xlink="http://www.w3.org/1999/xlink">
    <!-- Generator: Sketch 49.1 (51147) - http://www.bohemiancoding.com/sketch -->
    <title>Page 1</title>
    <desc>Created with Sketch.</desc>
    <defs>
        <polygon id="path-1" points="0 0 16 0 16 16 0 16"></polygon>
    </defs>
    <g id="Trabaja-con-Nosotros--III" stroke="none" stroke-width="1" fill="none" fill-rule="evenodd">
        <g id="nuestros-centros-03" transform="translate(-157.000000, -1317.000000)">
            <g id="Group-8" transform="translate(139.000000, 882.000000)">
                <g id="Group-5" transform="translate(0.000000, 49.000000)">
                    <g id="Page-1" transform="translate(18.000000, 386.000000)">
                        <mask id="mask-2" fill="white">
                            <use xlink:href="#path-1"></use>
                        </mask>
                        <g id="Clip-2"></g>
                        <path d="M2.19070804,0.0367632852 C0.995745672,0.502723999 0.243361961,2.21124662 0.0663304993,3.3872427 C-0.486892818,7.20368284 2.52264203,10.509785 5.28875861,12.6844903 C7.74507014,14.614677 12.4585328,17.7878695 15.2467783,14.7256201 C15.6008412,14.3486357 16.021291,13.7939205 15.999162,13.2392054 C15.9327752,12.3070621 15.0697469,11.6414039 14.4058789,11.131066 C13.8969134,10.7538597 12.8347247,9.71099525 12.1708567,9.73318386 C11.5733755,9.75537246 11.1971836,10.3766534 10.8209918,10.7538597 L10.1571238,11.4195179 C10.0464791,11.5304609 8.63022745,10.5985395 8.47532492,10.4875964 C7.89997267,10.1103901 7.34674935,9.68880664 6.85991284,9.22284593 C6.37307632,8.75688522 5.93049766,8.24654729 5.55430581,7.71402076 C5.44366114,7.55870052 4.5363749,6.20519559 4.62489063,6.09425257 C4.62489063,6.09425257 5.39940328,5.25108556 5.6206926,4.91825648 C6.08540019,4.2082211 6.43946311,3.65350597 5.90836873,2.81033896 C5.70920834,2.49969849 5.46579008,2.25562383 5.20024288,1.98936056 C4.7355353,1.54558845 4.27082771,1.07962774 3.73973333,0.702421448 C3.4520572,0.480535394 2.96522068,0.081140496 2.52264203,0.0145746798 C2.41199736,-0.00761392566 2.27922377,-0.00761392566 2.19070804,0.0367632852 Z" id="Fill-1" fill="#FD8017" mask="url(#mask-2)"></path>
                    </g>
                </g>
            </g>
        </g>
    </g>
</svg>