<?xml version="1.0" encoding="UTF-8"?>
<svg width="19px" height="20px" viewBox="0 0 19 20" version="1.1" xmlns="http://www.w3.org/2000/svg" xmlns:xlink="http://www.w3.org/1999/xlink">
    <!-- Generator: Sketch 49.1 (51147) - http://www.bohemiancoding.com/sketch -->
    <title>Page 1</title>
    <desc>Created with Sketch.</desc>
    <defs>
        <polygon id="path-1" points="1.34087807e-05 -1.93877551e-05 18.860602 -1.93877551e-05 18.860602 19.3877357 1.34087807e-05 19.3877357"></polygon>
    </defs>
    <g id="Trabaja-con-Nosotros--III" stroke="none" stroke-width="1" fill="none" fill-rule="evenodd">
        <g id="nuestros-centros-03" transform="translate(-911.000000, -611.000000)">
            <g id="Page-1" transform="translate(911.000000, 611.000000)">
                <mask id="mask-2" fill="white">
                    <use xlink:href="#path-1"></use>
                </mask>
                <g id="Clip-2"></g>
                <path d="M18.4969071,17.4699765 C17.9598663,16.2623133 15.3390296,15.4633439 13.5976214,14.7132316 C11.8562133,13.9633133 12.0942949,13.5082827 12.0314786,12.8863235 C12.0303153,12.8741092 12.0293459,12.8613133 12.0281827,12.849099 C12.6524684,12.6678235 13.6751724,12.2542827 14.2044582,11.4669459 C14.9534071,10.3527316 14.75255,8.91008878 14.7988867,8.14931327 C14.8452235,7.38853776 14.8818663,5.66903776 14.5542133,4.34485408 C14.2271418,3.02067041 13.8103051,1.78567041 13.036152,1.09992551 C12.2621929,0.414568367 11.6443051,0.46342551 11.2683765,0.574129592 C11.2381316,0.46187449 11.1570908,0.279435714 10.9403357,0.192772449 C10.6163663,0.0630683673 8.87166224,-0.313441837 7.22467245,0.558231633 C5.57787653,1.43009898 4.88999898,3.17519082 4.47587653,4.7773949 C4.06175408,6.3794051 3.84907041,8.12449694 4.2325602,10.1152316 C4.57107041,11.87215 6.10386633,12.4974051 6.89876429,12.7021398 C6.89527449,12.7653439 6.89081531,12.8273847 6.8848051,12.8865173 C6.82218265,13.5084765 7.00559082,13.9635071 5.26418265,14.7134255 C3.52258061,15.4635378 0.901937755,16.2625071 0.364896939,17.4701704 C-0.172143878,18.6774459 0.0422846939,19.3878133 0.0422846939,19.3878133 L18.8175806,19.3878133 C18.8173867,19.3878133 19.0341418,18.6774459 18.4969071,17.4699765" id="Fill-1" fill="#FD8017" mask="url(#mask-2)"></path>
            </g>
        </g>
    </g>
</svg>