<?xml version="1.0" encoding="UTF-8"?>
<svg width="76px" height="75px" viewBox="0 0 76 75" version="1.1" xmlns="http://www.w3.org/2000/svg" xmlns:xlink="http://www.w3.org/1999/xlink">
    <!-- Generator: Sketch 49.1 (51147) - http://www.bohemiancoding.com/sketch -->
    <title>noun_Phone_1253685</title>
    <desc>Created with Sketch.</desc>
    <defs></defs>
    <g id="Trabaja-con-Nosotros--III" stroke="none" stroke-width="1" fill="none" fill-rule="evenodd">
        <g id="opcion_B" transform="translate(-674.000000, -3976.000000)" fill="#008FC6" fill-rule="nonzero">
            <g id="noun_Phone_1253685" transform="translate(674.500000, 3976.000000)">
                <g id="Group">
                    <path d="M49.522319,74.9235925 C49.522118,74.9235925 49.5219169,74.9235925 49.5217158,74.9235925 C47.4720845,74.9235925 43.180496,74.5826743 37.4662198,72.3010054 C30.4752346,69.5093164 23.5714142,64.7348525 16.9464812,58.1105228 C3.75140751,44.9155496 -1.0980563,35.1040214 0.20941689,24.2474196 C0.370576408,22.8256367 0.718632708,21.4236595 1.27359249,19.9613606 C1.27550268,19.9562332 1.27741287,19.9511059 1.27942359,19.9461796 C1.87419571,18.4283847 5.27091153,14.1879692 6.2977882,12.9244303 C6.33036193,12.8843164 6.36494638,12.8459115 6.40144102,12.8093164 C7.65432306,11.5559316 9.30894772,10.8656501 11.0605898,10.8656501 C12.7414544,10.8656501 14.3110255,11.5093834 15.4801609,12.6783177 L24.9286528,22.1289209 C27.3953083,24.598492 27.3382038,28.6710121 24.8016756,31.2078418 L23.2318029,32.7799263 L20.8425603,35.1655496 C22.4652145,38.0872319 24.6894772,42.06937 28.845945,46.2255362 C33.0077413,50.3901475 36.9883713,52.607071 39.9070375,54.2242962 L43.862433,50.2698056 C45.113807,49.0180295 46.7676273,48.3283512 48.5189678,48.3283512 C50.1981233,48.3283512 51.7677949,48.9706769 52.9387399,50.1367962 L62.3891421,59.5886059 C64.852882,62.0597855 64.7960791,66.1331099 62.2643767,68.6700402 C62.2271783,68.7071381 62.1880697,68.7425268 62.147252,68.7757038 C60.8828083,69.8018767 56.640382,73.1955764 55.1338472,73.7844169 C53.7139745,74.3355563 52.3063673,74.6890416 50.8274799,74.8661863 C50.8204424,74.8669906 50.8135054,74.8677949 50.8064678,74.8684987 C50.6498324,74.8850871 50.2107909,74.9235925 49.522319,74.9235925 Z M4.08981233,21.0411193 C3.62684316,22.2631367 3.33770107,23.4246314 3.20579759,24.5914544 C3.20539544,24.5951743 3.20489276,24.5988941 3.20449062,24.6026139 C2.01936997,34.4271113 6.6185992,43.5171917 19.079256,55.9778485 C33.8608914,70.7584786 46.1173592,71.9075067 49.5217158,71.9075067 C49.5218164,71.9075067 49.5219169,71.9075067 49.522118,71.9075067 C50.0720509,71.9075067 50.3995979,71.8782507 50.4803284,71.8702078 C51.7006367,71.7231233 52.8649464,71.4299598 54.0391086,70.9740282 C54.7616622,70.691622 57.7742292,68.4368968 60.1802614,66.4876005 C61.4907507,65.1225201 61.5294571,62.9982909 60.2546582,61.719571 L50.8080764,52.2714812 C50.2085791,51.6744973 49.3947386,51.344437 48.5188673,51.344437 C47.5733244,51.344437 46.6769437,51.7202413 45.9950067,52.4023794 L41.234618,57.1615617 C40.7599866,57.636193 40.0289879,57.7400469 39.4410523,57.4162198 C39.1368298,57.2487265 38.8219504,57.0735925 38.4909853,56.8876005 C35.4182976,55.1851206 31.2,52.8478552 26.7130697,48.3579088 C22.229256,43.8747989 19.8844504,39.6524799 18.172319,36.5697386 L18.0818365,36.4060657 C17.9380697,36.145878 17.7988271,35.8938338 17.660992,35.6529491 C17.3230898,35.0620979 17.4228217,34.31813 17.9044906,33.8371649 L21.0991287,30.647252 L22.6681971,29.0759718 C24.0301609,27.7139075 24.0867627,25.554189 22.7951743,24.260992 L13.3473861,14.8110925 C12.7481903,14.2118968 11.9358579,13.8818365 11.0604893,13.8818365 C10.1380697,13.8818365 9.26189678,14.2399464 8.58548928,14.891622 C6.63930965,17.2908177 4.38599196,20.2986595 4.08981233,21.0411193 Z" id="Shape"></path>
                    <g transform="translate(33.579088, 0.000000)" id="Shape">
                        <path d="M25.24313,17.7586126 C24.8571716,17.7586126 24.4713137,17.6113271 24.1768432,17.3168566 C23.5880027,16.7280161 23.5880027,15.7731233 24.1768432,15.1841823 L27.6107574,11.7501676 C28.1996984,11.1613271 29.1544906,11.1613271 29.7434316,11.7501676 C30.3323727,12.339008 30.3323727,13.2939008 29.7435322,13.8828418 L26.3095174,17.3168566 C26.0150469,17.6113271 25.6290885,17.7586126 25.24313,17.7586126 Z"></path>
                        <path d="M8.62469839,34.3770442 C8.23863941,34.3770442 7.8527815,34.2298592 7.55831099,33.9352882 C6.96947051,33.3464477 6.96947051,32.391555 7.55831099,31.8026139 L19.9234584,19.437567 C20.5122989,18.848626 21.4671917,18.848626 22.0561327,19.437567 C22.6449732,20.0264075 22.6449732,20.9813003 22.0561327,21.5702413 L9.69108579,33.9352882 C9.39661528,34.2297587 9.0105563,34.3770442 8.62469839,34.3770442 Z"></path>
                        <path d="M1.56042225,7.91109249 C0.727580429,7.91109249 0.0523793566,7.23589142 0.0523793566,6.4030496 L0.0523793566,1.58434987 C0.0523793566,0.751508043 0.727580429,0.0763069705 1.56042225,0.0763069705 C2.39326408,0.0763069705 3.06846515,0.751508043 3.06846515,1.58434987 L3.06846515,6.4030496 C3.06846515,7.23589142 2.39326408,7.91109249 1.56042225,7.91109249 Z"></path>
                        <path d="M1.56032172,31.4509383 C0.727479893,31.4509383 0.0522788204,30.7757373 0.0522788204,29.9428954 L0.0522788204,12.4203418 C0.0522788204,11.5875 0.727580429,10.9122989 1.56032172,10.9122989 C2.39326408,10.9122989 3.06836461,11.5875 3.06836461,12.4203418 L3.06836461,29.9428954 C3.06836461,30.7757373 2.39316354,31.4509383 1.56032172,31.4509383 Z"></path>
                        <path d="M39.9091488,41.4415214 L35.0903485,41.4415214 C34.2575067,41.4415214 33.5823056,40.7662198 33.5823056,39.9334786 C33.5823056,39.1005362 34.2575067,38.4254357 35.0903485,38.4254357 L39.9091488,38.4254357 C40.7420912,38.4254357 41.4171917,39.1005362 41.4171917,39.9334786 C41.4171917,40.7662198 40.7420912,41.4415214 39.9091488,41.4415214 Z"></path>
                        <path d="M29.0725536,41.4415214 L11.5509048,41.4415214 C10.7181635,41.4415214 10.0428619,40.7662198 10.0428619,39.9334786 C10.0428619,39.1005362 10.7181635,38.4254357 11.5509048,38.4254357 L29.0725536,38.4254357 C29.9053954,38.4254357 30.5805965,39.1005362 30.5805965,39.9334786 C30.5805965,40.7662198 29.9053954,41.4415214 29.0725536,41.4415214 Z"></path>
                    </g>
                </g>
            </g>
        </g>
    </g>
</svg>