<?xml version="1.0" encoding="UTF-8"?>
<svg width="16px" height="16px" viewBox="0 0 16 16" version="1.1" xmlns="http://www.w3.org/2000/svg" xmlns:xlink="http://www.w3.org/1999/xlink">
    <!-- Generator: Sketch 49.1 (51147) - http://www.bohemiancoding.com/sketch -->
    <title>Page 1</title>
    <desc>Created with Sketch.</desc>
    <defs></defs>
    <g id="Trabaja-con-Nosotros--III" stroke="none" stroke-width="1" fill="none" fill-rule="evenodd">
        <g id="nuestros-centros-03" transform="translate(-450.000000, -1349.000000)" fill="#FD8017">
            <g id="Group-8" transform="translate(139.000000, 882.000000)">
                <g id="Group-5" transform="translate(293.000000, 49.000000)">
                    <path d="M26,420.057143 C26.2523429,420.057143 26.4571429,420.261943 26.4571429,420.514286 L26.4571429,425.735771 L30.5856,428.121371 C30.8045714,428.247543 30.8763429,428.524114 30.7499429,428.742857 C30.6237714,428.9616 30.3474286,429.033371 30.1284571,428.9072 C28.6774857,428.069714 27.2192,427.227886 25.7714286,426.392914 C25.6349714,426.313829 25.5428571,426.169143 25.5428571,426 L25.5428571,420.514286 C25.5428571,420.261943 25.7476571,420.057143 26,420.057143 M26,418 C21.5817143,418 18,421.581714 18,426 C18,430.418286 21.5817143,434 26,434 C30.4182857,434 34,430.418286 34,426 C34,421.581714 30.4182857,418 26,418" id="Page-1"></path>
                </g>
            </g>
        </g>
    </g>
</svg>