<?xml version="1.0" encoding="UTF-8"?>
<svg width="24px" height="24px" viewBox="0 0 24 24" version="1.1" xmlns="http://www.w3.org/2000/svg" xmlns:xlink="http://www.w3.org/1999/xlink">
    <!-- Generator: Sketch 49.1 (51147) - http://www.bohemiancoding.com/sketch -->
    <title>if_document_text_add_103511</title>
    <desc>Created with Sketch.</desc>
    <defs></defs>
    <g id="Trabaja-con-Nosotros--II" stroke="none" stroke-width="1" fill="none" fill-rule="evenodd">
        <g id="004_B" transform="translate(-896.000000, -995.000000)" fill="#008FC6" fill-rule="nonzero">
            <g id="Group-2" transform="translate(250.000000, 691.000000)">
                <g id="if_document_text_add_103511" transform="translate(646.000000, 304.000000)">
                    <g id="document_x5F_text_x5F_add">
                        <path d="M18,10.54425 L18,4.188 L13.8105,0 L0,0 L0,24 L18,24 L18,23.95575 C21.37425,23.58075 23.9985,20.724 24,17.25 C23.9985,13.7745 21.37425,10.917 18,10.54425 Z M13.4985,1.80975 L16.1895,4.5 L13.4985,4.5 L13.4985,1.80975 Z M1.5,22.5 L1.5,1.4985 L12,1.4985 L12,5.99925 L16.5,5.99925 L16.5,10.54425 C15.186,10.68975 13.986,11.21175 13.011,12 L3,12 L3,13.5 L11.63775,13.5 C11.32875,13.962 11.0805,14.46675 10.89225,15 L3,15 L3,16.5 L10.54425,16.5 C10.5165,16.74675 10.5,16.99575 10.5,17.25 C10.5,19.37175 11.481,21.26325 13.01175,22.5 L1.5,22.5 Z M17.25,22.41225 C14.39925,22.4055 12.093,20.09925 12.08625,17.25 C12.093,14.39925 14.39925,12.093 17.25,12.08625 C20.09925,12.093 22.4055,14.39925 22.41225,17.25 C22.4055,20.09925 20.09925,22.4055 17.25,22.41225 Z M15,9 L3,9 L3,10.5 L15,10.5 L15,9 Z" id="Shape"></path>
                        <polygon id="Shape" points="21 16.5 18.0015 16.5 18.0015 13.5 16.5 13.5 16.5 16.5 13.5 16.5 13.5 18 16.5 18 16.5 21 18.0015 21 18.0015 18 21 18"></polygon>
                    </g>
                </g>
            </g>
        </g>
    </g>
</svg>