<?xml version="1.0" encoding="UTF-8"?>
<svg width="34px" height="34px" viewBox="0 0 34 34" version="1.1" xmlns="http://www.w3.org/2000/svg" xmlns:xlink="http://www.w3.org/1999/xlink">
    <!-- Generator: Sketch 49.1 (51147) - http://www.bohemiancoding.com/sketch -->
    <title>if_linkedin_social_media_online_1940923</title>
    <desc>Created with Sketch.</desc>
    <defs></defs>
    <g id="Symbols" stroke="none" stroke-width="1" fill="none" fill-rule="evenodd">
        <g id="Footer" transform="translate(-90.000000, -256.000000)" fill="#FFFFFF" fill-rule="nonzero">
            <g id="if_linkedin_social_media_online_1940923" transform="translate(91.153846, 257.000000)">
                <path d="M23.247,21.927 L23.247,16.567 C23.247,13.695 21.714,12.359 19.67,12.359 C18.021,12.359 17.282,13.266 16.87,13.903 L16.87,12.579 L13.763,12.579 C13.804,13.456 13.763,21.927 13.763,21.927 L16.87,21.927 L16.87,16.706 C16.87,16.427 16.89,16.148 16.973,15.949 C17.197,15.391 17.708,14.813 18.566,14.813 C19.691,14.813 20.14,15.67 20.14,16.926 L20.14,21.927 L23.247,21.927 Z M10.49,11.303 C11.573,11.303 12.248,10.585 12.248,9.687 C12.228,8.77 11.573,8.073 10.51,8.073 C9.447,8.073 8.753,8.77 8.753,9.687 C8.753,10.584 9.428,11.303 10.47,11.303 L10.49,11.303 Z M12.043,21.927 L12.043,12.579 L8.937,12.579 L8.937,21.927 L12.043,21.927 Z" id="Shape"></path>
                <g id="Shopping_10_116_" stroke="#FFFFFF" stroke-width="0.5">
                    <path d="M16,1 C24.271,1 31,7.729 31,16 C31,24.271 24.271,31 16,31 C7.729,31 1,24.271 1,16 C1,7.729 7.729,1 16,1 Z M16,0 C7.163,0 0,7.163 0,16 C0,24.837 7.164,32 16,32 C24.836,32 32,24.836 32,16 C32,7.164 24.836,0 16,0 Z" id="Shape"></path>
                </g>
            </g>
        </g>
    </g>
</svg>