<?xml version="1.0" encoding="UTF-8"?>
<svg width="39px" height="39px" viewBox="0 0 39 39" version="1.1" xmlns="http://www.w3.org/2000/svg" xmlns:xlink="http://www.w3.org/1999/xlink">
    <!-- Generator: Sketch 49.1 (51147) - http://www.bohemiancoding.com/sketch -->
    <title>Group 3</title>
    <desc>Created with Sketch.</desc>
    <defs></defs>
    <g id="Trabaja-con-Nosotros--III" stroke="none" stroke-width="1" fill="none" fill-rule="evenodd">
        <g id="nuestros-centros-03" transform="translate(-902.000000, -275.000000)">
            <g id="Group-3" transform="translate(902.000000, 275.000000)">
                <circle id="Oval-5" fill="#FD8017" cx="19.5" cy="19.5" r="19.5"></circle>
                <g id="if_search_126577" transform="translate(10.000000, 9.000000)" fill="#FFFFFF" fill-rule="nonzero">
                    <path d="M19.625,17.875 L15.74375,13.99375 C16.84125,12.53 17.5,10.72 17.5,8.75 C17.5,3.9175 13.5825,0 8.75,0 C3.9175,0 0,3.9175 0,8.75 C0,13.5825 3.9175,17.5 8.75,17.5 C10.72,17.5 12.53,16.84125 13.9925,15.74375 L17.875,19.625 C18.105,19.855 18.35,20 18.75,20 C19.44125,20 20,19.44125 20,18.75 C20,18.47625 19.9325,18.1825 19.625,17.875 Z M2.5,8.75 C2.5,5.2975 5.2975,2.5 8.75,2.5 C12.2025,2.5 15,5.2975 15,8.75 C15,12.2025 12.2025,15 8.75,15 C5.2975,15 2.5,12.2025 2.5,8.75 Z" id="Shape"></path>
                </g>
            </g>
        </g>
    </g>
</svg>