<?xml version="1.0" encoding="UTF-8"?>
<svg width="33px" height="32px" viewBox="0 0 33 32" version="1.1" xmlns="http://www.w3.org/2000/svg" xmlns:xlink="http://www.w3.org/1999/xlink">
    <!-- Generator: Sketch 49.1 (51147) - http://www.bohemiancoding.com/sketch -->
    <title>if_Youtube_Rounded_1181249</title>
    <desc>Created with Sketch.</desc>
    <defs></defs>
    <g id="Symbols" stroke="none" stroke-width="1" fill="none" fill-rule="evenodd">
        <g id="Footer" transform="translate(-179.000000, -257.000000)" fill="#FFFFFF" fill-rule="nonzero">
            <g id="if_Youtube_Rounded_1181249" transform="translate(179.230769, 257.000000)">
                <path d="M15.999737,0 C7.17756518,0 0,7.17756518 0,16 C0,24.8224348 7.17756518,32 15.999737,32 C24.8221718,32 32,24.8224348 32,16 C32,7.17756518 24.8219088,0 15.999737,0 Z M15.999737,30.4219351 C8.04760496,30.4219351 1.5780649,23.952132 1.5780649,16 C1.5780649,8.04786797 8.04760496,1.5780649 15.999737,1.5780649 C23.951869,1.5780649 30.4219351,8.04786797 30.4219351,16 C30.4219351,23.952132 23.951869,30.4219351 15.999737,30.4219351 Z" id="Shape"></path>
                <path d="M22.4847635,10.121728 C22.4847635,10.121728 20.6651337,9.84615385 15.9340963,9.84615385 C11.1863844,9.84615385 9.51550111,10.121728 9.51550111,10.121728 C8.33876307,10.121728 7.38461538,11.1148972 7.38461538,12.3400998 L7.38461538,19.6601757 C7.38461538,20.8851028 8.3384984,21.878272 9.51550111,21.878272 C9.51550111,21.878272 11.1863844,22.1538462 15.9393898,22.1538462 C20.6648691,22.1538462 22.4844988,21.878272 22.4844988,21.878272 C23.6609722,21.878272 24.6153846,20.8851028 24.6153846,19.6601757 L24.6153846,12.3400998 C24.6156492,11.1148972 23.6615015,10.121728 22.4847635,10.121728 Z M13.3916434,19.5127436 L13.3916434,12.5269391 L19.2022837,16.0195658 L13.3916434,19.5127436 Z" id="Shape"></path>
            </g>
        </g>
    </g>
</svg>