<?xml version="1.0" encoding="UTF-8"?>
<svg width="24px" height="24px" viewBox="0 0 24 24" version="1.1" xmlns="http://www.w3.org/2000/svg" xmlns:xlink="http://www.w3.org/1999/xlink">
    <!-- Generator: Sketch 49.1 (51147) - http://www.bohemiancoding.com/sketch -->
    <title>linear</title>
    <desc>Created with Sketch.</desc>
    <defs></defs>
    <g id="LICENCIAS-&gt;-CARO-2" stroke="none" stroke-width="1" fill="none" fill-rule="evenodd">
        <g id="012_licencias_dkt" transform="translate(-264.000000, -318.000000)" fill="#0079C7" fill-rule="nonzero">
            <g id="Group-11" transform="translate(238.000000, 306.000000)">
                <g id="linear" transform="translate(26.000000, 12.000000)">
                    <path d="M12,0 C5.3835,0 0,5.3835 0,12 C0,18.6165 5.3835,24 12,24 C18.6165,24 24,18.6165 24,12 C24,5.3835 18.6165,0 12,0 Z M12,22.36425 C6.28575,22.36425 1.63575,17.71425 1.63575,12 C1.63575,6.28575 6.28575,1.63575 12,1.63575 C17.71425,1.63575 22.36425,6.28575 22.36425,12 C22.36425,17.71425 17.71425,22.36425 12,22.36425 Z M12.31425,4.596 C12.0045,4.91475 11.8575,5.2995 11.8575,5.75625 C11.8575,6.213 12.00975,6.59775 12.3195,6.9165 C12.62925,7.23525 12.999,7.39725 13.43775,7.39725 C13.8765,7.39725 14.25075,7.23525 14.5605,6.9165 C14.865,6.59775 15.027,6.213 15.027,5.75625 C15.027,5.2995 14.87025,4.91475 14.565,4.596 C14.25525,4.27275 13.88025,4.11525 13.43775,4.11525 C12.99525,4.11525 12.62475,4.272 12.315,4.596 L12.31425,4.596 Z M13.308,8.85675 L9.7455,9.5835 L9.7455,9.9495 C9.89775,9.9405 10.02225,9.93525 10.1295,9.93525 C10.3665,9.93525 10.554,9.996 10.68975,10.125 C10.82325,10.2495 10.89375,10.392 10.89375,10.554 C10.89375,10.8165 10.81875,11.196 10.6755,11.6955 L9.1635,16.9545 C9.0345,17.379 8.97825,17.721 8.97825,17.98575 C8.97825,18.41025 9.10725,18.75225 9.372,19.0215 C9.6345,19.2885 9.98625,19.425 10.43625,19.425 C11.601,19.425 12.7005,18.4125 13.73175,16.3755 L13.38,16.14375 C12.9465,16.896 12.5805,17.40975 12.2715,17.69325 C12.15225,17.8125 12.0345,17.86875 11.91975,17.86875 C11.85375,17.86875 11.78625,17.83575 11.73,17.7585 C11.664,17.688 11.634,17.60625 11.634,17.5215 C11.634,17.3835 11.68575,17.088 11.8095,16.647 L13.935,8.8515 L13.30725,8.8515 L13.308,8.85675 Z" id="path-1"></path>
                </g>
            </g>
        </g>
    </g>
</svg>