<?xml version="1.0" encoding="UTF-8"?>
<svg width="16px" height="10px" viewBox="0 0 16 10" version="1.1" xmlns="http://www.w3.org/2000/svg" xmlns:xlink="http://www.w3.org/1999/xlink">
    <!-- Generator: Sketch 49.1 (51147) - http://www.bohemiancoding.com/sketch -->
    <title>Shape</title>
    <desc>Created with Sketch.</desc>
    <defs>
        <path d="M366.76304,31.416476 L372.89744,37.550876 C373.46,38.113436 373.46,39.033756 372.89744,39.595676 L372.38544,40.108316 C371.82416,40.670236 370.9032,40.670236 370.34128,40.108316 L365.65968,35.426716 L360.97808,40.108316 C360.41616,40.670236 359.4952,40.670236 358.93392,40.108316 L358.42192,39.595676 C357.85936,39.033756 357.85936,38.113436 358.42192,37.550876 L364.5576,31.416476 C364.85904,31.114396 365.26352,30.979996 365.66032,31.002396 C366.0552,30.979996 366.46032,31.114396 366.76304,31.416476 Z" id="path-1"></path>
    </defs>
    <g id="Trabaja-con-Nosotros--II" stroke="none" stroke-width="1" fill="none" fill-rule="evenodd">
        <g id="004_B" transform="translate(-607.000000, -642.000000)" fill-rule="nonzero">
            <g id="selecciona-dirección" transform="translate(249.000000, 611.000000)">
                <g id="Shape" transform="translate(365.659680, 35.764878) scale(1, -1) translate(-365.659680, -35.764878) ">
                    <use fill="#008FC6" fill-rule="evenodd" xlink:href="#path-1"></use>
                    <path stroke="#FFFFFF" stroke-width="1" d="M366.409694,31.7702367 C366.219905,31.5809461 365.959417,31.4862323 365.632139,31.5016013 C365.359686,31.4862208 365.100094,31.5806878 364.911117,31.7700663 L358.775473,37.9044294 C358.408209,38.2716937 358.408209,38.8752761 358.775694,39.2423436 L359.287675,39.7549642 C359.65368,40.1213869 360.257902,40.1213869 360.624527,39.7547627 L365.65968,34.7196093 L370.694833,39.7547627 C371.061458,40.1213869 371.66568,40.1213869 372.031666,39.7549836 L372.544088,39.2419215 C372.911151,38.8752761 372.911151,38.2716937 372.543887,37.9044294 L366.409694,31.7702367 Z M366.409694,31.7702367 L366.409487,31.7700294 L366.409861,31.7704034 C366.409805,31.7703478 366.40975,31.7702922 366.409694,31.7702367 Z"></path>
                </g>
            </g>
        </g>
    </g>
</svg>