<?xml version="1.0" encoding="UTF-8"?>
<svg width="22px" height="22px" viewBox="0 0 22 22" version="1.1" xmlns="http://www.w3.org/2000/svg" xmlns:xlink="http://www.w3.org/1999/xlink">
    <!-- Generator: Sketch 49.1 (51147) - http://www.bohemiancoding.com/sketch -->
    <title>if_phone1_172517</title>
    <desc>Created with Sketch.</desc>
    <defs></defs>
    <g id="Symbols" stroke="none" stroke-width="1" fill="none" fill-rule="evenodd">
        <g id="Header_top" transform="translate(-822.000000, -9.000000)" stroke="#008FC6" stroke-width="2">
            <g id="if_phone1_172517" transform="translate(823.000000, 10.000000)">
                <path d="M12.1741539,14.271796 C12.1741539,14.271796 13.8612643,13.3059472 14.302938,13.0738602 C14.7433617,12.8409398 15.199619,12.7821889 15.4767068,12.9513582 C15.8962968,13.208029 19.4196866,15.5518165 19.716358,15.7593199 C20.0130294,15.9672399 20.1559484,16.5609994 19.7480252,17.1426753 C19.3417687,17.7243513 17.467572,20.0243881 16.6733926,19.9998044 C15.8779632,19.9739707 12.5708269,19.9014695 6.3344771,13.663453 C0.0993772744,7.4275198 0.0256260937,4.11955017 0.000209020099,3.32412077 C-0.0252080535,2.52910804 2.27482877,0.654494695 2.85650475,0.247821518 C3.43901407,-0.158434986 4.03360693,-0.00551587132 4.2402769,0.280322038 C4.47528067,0.605743915 6.79198442,4.11788348 7.0469885,4.52038992 C7.22157463,4.79539432 7.15740694,5.25415167 6.92448654,5.69499206 C6.69281617,6.1366658 5.72696737,7.82377614 5.72696737,7.82377614 C5.72696737,7.82377614 6.40781161,8.98504473 8.71034847,11.2871649 C11.013302,13.5897018 12.1741539,14.271796 12.1741539,14.271796 Z" id="Shape"></path>
            </g>
        </g>
    </g>
</svg>