<?xml version="1.0" encoding="UTF-8"?>
<svg width="17px" height="22px" viewBox="0 0 17 22" version="1.1" xmlns="http://www.w3.org/2000/svg" xmlns:xlink="http://www.w3.org/1999/xlink">
    <!-- Generator: Sketch 49.1 (51147) - http://www.bohemiancoding.com/sketch -->
    <title>if_location_115718</title>
    <desc>Created with Sketch.</desc>
    <defs></defs>
    <g id="Symbols" stroke="none" stroke-width="1" fill="none" fill-rule="evenodd">
        <g id="Header_top" transform="translate(-787.000000, -9.000000)" fill="#008FC6" stroke="#008FC6">
            <g id="if_location_115718" transform="translate(788.000000, 10.000000)">
                <path d="M7.50125,11.09125 C9.569375,11.09125 11.25125,9.40875 11.25125,7.34125 C11.25125,5.27375 9.569375,3.59125 7.50125,3.59125 C5.433125,3.59125 3.75125,5.273125 3.75125,7.34125 C3.75125,9.409375 5.433125,11.09125 7.50125,11.09125 Z M7.50125,4.21625 C9.225,4.21625 10.62625,5.6175 10.62625,7.34125 C10.62625,9.065 9.225,10.46625 7.50125,10.46625 C5.7775,10.46625 4.37625,9.065 4.37625,7.34125 C4.37625,5.6175 5.7775,4.21625 7.50125,4.21625 Z" id="Shape"></path>
                <path d="M7.5,0 C3.36375,0 0,3.3225 0,7.500625 C0,11.875625 3.750625,16.35125 6.485,19.496875 C6.495,19.509375 6.93375,20 7.47625,20 C7.4775,20 7.521875,20 7.524375,20 C8.06625,20 8.505625,19.509375 8.515625,19.496875 C11.25125,16.35125 15.00125,11.87625 15.00125,7.500625 C15.00125,3.3225 11.636875,0 7.5,0 Z M7.573125,18.676875 C7.56,18.689375 7.521875,18.716875 7.48875,18.738125 C7.4825,18.72125 7.43625,18.684375 7.408125,18.655 C5.1175,16.019375 1.25,11.57125 1.25,7.500625 C1.25,4.054375 4.054375,1.25 7.5,1.25 C10.9475,1.25 13.75125,4.054375 13.75125,7.50125 C13.75125,11.57125 9.88375,16.019375 7.573125,18.676875 Z" id="Shape"></path>
            </g>
        </g>
    </g>
</svg>